<?xml version="1.0" encoding="utf-8"?>
<!-- Generator: Adobe Illustrator 26.0.2, SVG Export Plug-In . SVG Version: 6.00 Build 0)  -->
<svg version="1.1" id="Calque_1" xmlns="http://www.w3.org/2000/svg" xmlns:xlink="http://www.w3.org/1999/xlink" x="0px" y="0px"
	 viewBox="0 0 369.42 333.67" style="enable-background:new 0 0 369.42 333.67;" xml:space="preserve">
<style type="text/css">
	.st0{fill:#FFFFFF;}
	.st1{fill:#2BAEFE;}
	.st2{fill:#33CCFF;}
	.st3{fill:#FFB612;}
	.st4{fill:#FDCC32;}
	.st5{fill:#FA6E34;}
	.st6{fill:#FA8840;}
	.st7{fill:none;stroke:#1C225C;stroke-width:6.6189;stroke-linecap:round;stroke-linejoin:round;stroke-miterlimit:10;}
	.st8{fill:none;stroke:#1C225C;stroke-width:2.7719;stroke-linecap:round;stroke-linejoin:round;stroke-miterlimit:10;}
	.st9{fill:none;stroke:#1C225C;stroke-width:4.2512;stroke-linecap:round;stroke-linejoin:round;stroke-miterlimit:10;}
	.st10{fill:#0071BC;}
	.st11{fill:#29ABE2;}
	.st12{fill:#E0E4FF;}
	.st13{fill:#1C225C;}
	.st14{clip-path:url(#SVGID_00000133512834379257135170000004263586059315120300_);}
	.st15{fill:none;stroke:#1C225C;stroke-width:6.6887;stroke-linecap:round;stroke-linejoin:round;stroke-miterlimit:10;}
	.st16{fill:none;stroke:#1C225C;stroke-width:6;stroke-linecap:round;stroke-linejoin:round;stroke-miterlimit:10;}
	.st17{fill:#FBB03B;}
	.st18{fill:none;stroke:#1C225C;stroke-width:2.4149;stroke-linecap:round;stroke-linejoin:round;stroke-miterlimit:10;}
	.st19{fill:none;stroke:#B9D5EA;stroke-width:14;stroke-linecap:round;stroke-miterlimit:10;}
	.st20{fill:#B9D5EA;}
	.st21{fill:#48BDFF;}
	.st22{fill:#DFE8ED;}
	.st23{fill:#000072;}
	.st24{opacity:0.3;}
	.st25{opacity:0.55;}
	.st26{fill:#F2355D;}
	.st27{fill:#8AC457;}
	.st28{fill:#E9F0F4;}
	.st29{opacity:0.31;}
	.st30{fill:none;stroke:#1C225C;stroke-width:2.7551;stroke-linecap:round;stroke-linejoin:round;stroke-miterlimit:10;}
	.st31{fill:none;stroke:#1C225C;stroke-width:2.5299;stroke-linecap:round;stroke-linejoin:round;stroke-miterlimit:10;}
	.st32{fill:none;stroke:#1C225C;stroke-width:1.9862;stroke-linecap:round;stroke-linejoin:round;stroke-miterlimit:10;}
</style>
<g>
	<g>
		<g>
			<polygon class="st0" points="229.4,318.77 140.02,318.77 151.94,259.19 217.48,259.19 			"/>
		</g>
		<g>
			<polygon class="st10" points="229.4,318.77 151.94,318.77 163.85,259.19 217.48,259.19 			"/>
		</g>
		<g>
			<polygon class="st11" points="211.52,318.77 151.94,318.77 163.85,259.19 199.61,259.19 			"/>
		</g>
		<g>
			<rect x="110.23" y="318.77" class="st0" width="148.96" height="11.92"/>
		</g>
		<g>
			<rect x="122.15" y="318.77" class="st10" width="137.04" height="11.92"/>
		</g>
		<g>
			<rect x="2.98" y="199.61" class="st0" width="363.46" height="59.58"/>
		</g>
		<g>
			<rect x="14.9" y="199.61" class="st10" width="351.54" height="59.58"/>
		</g>
		<g>
			<rect x="14.9" y="199.61" class="st11" width="333.67" height="59.58"/>
		</g>
		<g>
			<rect x="2.98" y="2.98" class="st12" width="363.46" height="196.63"/>
		</g>
		<g>
			<rect x="2.98" y="2.98" class="st0" width="345.58" height="196.63"/>
		</g>
		<g>
			<g>
				<path class="st13" d="M229.4,321.75h-89.38c-0.89,0-1.74-0.4-2.3-1.09c-0.56-0.69-0.79-1.6-0.62-2.47l11.92-59.58
					c0.28-1.39,1.5-2.39,2.92-2.39h65.54c1.42,0,2.64,1,2.92,2.39l11.92,59.58c0.17,0.88-0.05,1.78-0.62,2.47
					C231.14,321.35,230.29,321.75,229.4,321.75z M143.66,315.79h82.1l-10.72-53.63h-60.65L143.66,315.79z"/>
			</g>
			<g>
				<path class="st13" d="M259.19,333.67H110.23c-1.65,0-2.98-1.33-2.98-2.98v-11.92c0-1.65,1.33-2.98,2.98-2.98h148.96
					c1.65,0,2.98,1.33,2.98,2.98v11.92C262.17,332.34,260.84,333.67,259.19,333.67z M113.21,327.71h143v-5.96h-143V327.71z"/>
			</g>
			<g>
				<path class="st13" d="M366.44,262.17H2.98c-1.65,0-2.98-1.33-2.98-2.98s1.33-2.98,2.98-2.98h360.48v-53.63H5.96v2.98
					c0,1.65-1.33,2.98-2.98,2.98S0,207.21,0,205.56v-5.96c0-1.65,1.33-2.98,2.98-2.98h363.46c1.65,0,2.98,1.33,2.98,2.98v59.58
					C369.42,260.84,368.09,262.17,366.44,262.17z"/>
			</g>
			<g>
				<path class="st13" d="M366.44,202.58H2.98c-1.65,0-2.98-1.33-2.98-2.98V2.98C0,1.33,1.33,0,2.98,0h363.46
					c1.65,0,2.98,1.33,2.98,2.98s-1.33,2.98-2.98,2.98H5.96v190.67h357.5V56.6c0-1.65,1.33-2.98,2.98-2.98s2.98,1.33,2.98,2.98v143
					C369.42,201.25,368.09,202.58,366.44,202.58z"/>
			</g>
			<g>
				<path class="st13" d="M366.44,41.71c-1.65,0-2.98-1.33-2.98-2.98V26.81c0-1.65,1.33-2.98,2.98-2.98s2.98,1.33,2.98,2.98v11.92
					C369.42,40.38,368.09,41.71,366.44,41.71z"/>
			</g>
			<g>
				<path class="st13" d="M2.98,238.33C1.33,238.33,0,237,0,235.36v-11.92c0-1.65,1.33-2.98,2.98-2.98s2.98,1.33,2.98,2.98v11.92
					C5.96,237,4.63,238.33,2.98,238.33z"/>
			</g>
		</g>
	</g>
	<line class="st19" x1="99.35" y1="58" x2="273.35" y2="58"/>
	<g id="design">
		<path class="st20" d="M249.05,127.26c0-35.54-28.81-64.35-64.35-64.35s-64.35,28.81-64.35,64.35c0,3.95-3.2,7.15-7.15,7.15
			c-3.95,0-7.15-3.2-7.15-7.15c0-43.43,35.21-78.65,78.65-78.65s78.65,35.21,78.65,78.65c0,3.95-3.2,7.15-7.15,7.15
			C252.25,134.41,249.05,131.21,249.05,127.26z"/>
		<path class="st21" d="M226.53,130.62l-35.75-57.2c-2.08-3.36-6.49-4.39-9.84-2.31c-0.94,0.58-1.73,1.37-2.31,2.31
			c-37.61,60.13-38.82,59.34-35.75,64.35c1.2,2.26,3.52,3.7,6.08,3.79c7.9,0,14.3,6.4,14.3,14.3c0,3.95,3.2,7.15,7.15,7.15h28.6
			c3.95,0,7.15-3.2,7.15-7.15c0-7.9,6.4-14.3,14.3-14.3c3.95,0.01,7.16-3.19,7.16-7.14C227.62,133.08,227.24,131.76,226.53,130.62z"
			/>
		<path class="st20" d="M177.56,120.11v-42.9c0-3.95,3.2-7.15,7.15-7.15c3.95,0,7.15,3.2,7.15,7.15v42.9c0,3.95-3.2,7.15-7.15,7.15
			C180.76,127.26,177.56,124.06,177.56,120.11z"/>
		<path class="st5" d="M177.56,41.46h14.3c3.95,0,7.15,3.2,7.15,7.15v14.3c0,3.95-3.2,7.15-7.15,7.15h-14.3
			c-3.95,0-7.15-3.2-7.15-7.15v-14.3C170.41,44.66,173.61,41.46,177.56,41.46z"/>
		<path class="st5" d="M106.06,127.26h14.3c3.95,0,7.15,3.2,7.15,7.15v14.3c0,3.95-3.2,7.15-7.15,7.15h-14.3
			c-3.95,0-7.15-3.2-7.15-7.15v-14.3C98.91,130.46,102.11,127.26,106.06,127.26z"/>
		<path class="st5" d="M249.05,127.26h14.3c3.95,0,7.15,3.2,7.15,7.15v14.3c0,3.95-3.2,7.15-7.15,7.15h-14.3
			c-3.95,0-7.15-3.2-7.15-7.15v-14.3C241.9,130.46,245.1,127.26,249.05,127.26z"/>
		<path class="st6" d="M199.01,48.61v14.29c0,3.95-3.21,7.15-7.15,7.15h-8.6c3.95,0,7.15-3.21,7.15-7.15V48.61
			c0-3.95-3.21-7.15-7.15-7.15h8.6C195.81,41.46,199.01,44.67,199.01,48.61z"/>
		<path class="st6" d="M127.51,134.4v14.31c0,3.95-3.19,7.14-7.14,7.14h-8.6c3.95,0,7.14-3.19,7.14-7.14V134.4
			c0-3.95-3.19-7.15-7.14-7.15h8.6C124.31,127.25,127.51,130.46,127.51,134.4z"/>
		<path class="st6" d="M270.51,134.4v14.31c0,3.95-3.21,7.14-7.15,7.14h-8.6c3.95,0,7.15-3.19,7.15-7.14V134.4
			c0-3.95-3.21-7.15-7.15-7.15h8.6C267.3,127.25,270.51,130.46,270.51,134.4z"/>
	</g>
</g>
</svg>
