<?xml version="1.0" encoding="utf-8"?>
<!-- Generator: Adobe Illustrator 26.0.2, SVG Export Plug-In . SVG Version: 6.00 Build 0)  -->
<svg version="1.1" id="Calque_1" xmlns="http://www.w3.org/2000/svg" xmlns:xlink="http://www.w3.org/1999/xlink" x="0px" y="0px"
	 viewBox="0 0 410.37 432.25" style="enable-background:new 0 0 410.37 432.25;" xml:space="preserve">
<style type="text/css">
	.st0{fill:#FFFFFF;}
	.st1{fill:#2BAEFE;}
	.st2{fill:#33CCFF;}
	.st3{fill:#FFB612;}
	.st4{fill:#FDCC32;}
	.st5{fill:#FA6E34;}
	.st6{fill:#FA8840;}
	.st7{fill:none;stroke:#1C225C;stroke-width:6.6189;stroke-linecap:round;stroke-linejoin:round;stroke-miterlimit:10;}
	.st8{fill:none;stroke:#1C225C;stroke-width:2.7719;stroke-linecap:round;stroke-linejoin:round;stroke-miterlimit:10;}
	.st9{fill:none;stroke:#1C225C;stroke-width:4.2512;stroke-linecap:round;stroke-linejoin:round;stroke-miterlimit:10;}
	.st10{fill:#0071BC;}
	.st11{fill:#29ABE2;}
	.st12{fill:#E0E4FF;}
	.st13{fill:#1C225C;}
	.st14{clip-path:url(#SVGID_00000085239752010825737590000014952352665996199343_);}
	.st15{fill:none;stroke:#1C225C;stroke-width:6.6887;stroke-linecap:round;stroke-linejoin:round;stroke-miterlimit:10;}
	.st16{fill:none;stroke:#1C225C;stroke-width:6;stroke-linecap:round;stroke-linejoin:round;stroke-miterlimit:10;}
	.st17{fill:#FBB03B;}
	.st18{fill:none;stroke:#1C225C;stroke-width:2.4149;stroke-linecap:round;stroke-linejoin:round;stroke-miterlimit:10;}
	.st19{fill:none;stroke:#B9D5EA;stroke-width:14;stroke-linecap:round;stroke-miterlimit:10;}
	.st20{fill:#B9D5EA;}
	.st21{fill:#48BDFF;}
	.st22{fill:#DFE8ED;}
	.st23{fill:#000072;}
	.st24{opacity:0.3;}
	.st25{opacity:0.55;}
	.st26{fill:#F2355D;}
	.st27{fill:#8AC457;}
	.st28{fill:#E9F0F4;}
	.st29{opacity:0.31;}
	.st30{fill:none;stroke:#1C225C;stroke-width:2.7551;stroke-linecap:round;stroke-linejoin:round;stroke-miterlimit:10;}
	.st31{fill:none;stroke:#1C225C;stroke-width:2.5299;stroke-linecap:round;stroke-linejoin:round;stroke-miterlimit:10;}
	.st32{fill:none;stroke:#1C225C;stroke-width:1.9862;stroke-linecap:round;stroke-linejoin:round;stroke-miterlimit:10;}
</style>
<g>
	<g>
		<rect x="23.17" y="250.23" class="st0" width="364.04" height="178.71"/>
		<rect x="36.4" y="250.23" class="st1" width="350.8" height="178.71"/>
		<rect x="36.4" y="250.23" class="st2" width="330.94" height="178.71"/>
		<rect x="3.31" y="217.14" class="st0" width="403.75" height="33.09"/>
		<rect x="16.55" y="217.14" class="st3" width="390.51" height="33.09"/>
		<rect x="16.55" y="217.14" class="st4" width="370.66" height="33.09"/>
		<path class="st0" d="M248.21,68.21c0,0.27,0,0.6-0.07,0.86c-0.4,23.36-19.46,42.16-42.96,42.16c-23.3,0-42.29-18.53-42.96-41.63
			c-0.07-0.46-0.07-0.93-0.07-1.39c0-23.76,19.26-43.02,43.02-43.02C228.95,25.19,248.21,44.45,248.21,68.21z"/>
		<path class="st3" d="M248.21,68.21c0,0.27,0,0.6-0.07,0.86c-0.33,21.18-16.02,38.59-36.47,41.63c-1.06-0.2-2.12-0.4-3.18-0.66
			c-2.25-0.53-4.43-1.26-6.55-2.12c-15.16-6.29-25.95-20.98-26.48-38.32c-0.07-0.46-0.07-0.93-0.07-1.39c0-1.79,0.13-3.57,0.33-5.3
			c1.92-15.55,12.11-28.59,26.14-34.35h0.07c2.12-0.93,4.24-1.65,6.55-2.18c1.06-0.26,2.12-0.46,3.24-0.66
			C232.39,28.83,248.21,46.7,248.21,68.21z"/>
		<path class="st4" d="M228.35,68.21c0,0.27,0,0.6-0.07,0.86c-0.26,17.54-11.05,32.5-26.34,38.85
			c-15.16-6.29-25.95-20.98-26.48-38.32c-0.07-0.46-0.07-0.93-0.07-1.39c0-1.79,0.13-3.57,0.33-5.3
			c1.92-15.55,12.11-28.59,26.14-34.35h0.07C217.5,34.99,228.35,50.34,228.35,68.21z"/>
		<path class="st5" d="M248.21,68.21c0,0.27,0,0.6-0.07,0.86c-5.23,1.59-10.72,2.45-16.48,2.45c-1.19,0-2.32-0.07-3.51-0.07
			c-16.28-1.06-30.71-9.07-40.38-21.05c-3.24,4.9-7.28,9.13-12.05,12.51c1.92-15.55,12.11-28.59,26.14-34.35
			c2.12-0.93,4.3-1.65,6.62-2.18c1.06-0.26,2.12-0.46,3.24-0.66C232.39,28.83,248.21,46.7,248.21,68.21z"/>
		<polygon class="st0" points="274.68,217.14 135.69,217.14 135.69,124.47 175.4,117.85 188.64,131.09 221.73,131.09 234.97,117.85 
			274.68,124.47 		"/>
		<polygon class="st1" points="274.68,124.47 274.68,217.14 148.92,217.14 148.92,122.29 175.4,117.85 188.64,131.09 221.73,131.09 
			234.97,117.85 		"/>
		<polygon class="st2" points="254.83,121.16 254.83,217.14 148.92,217.14 148.92,122.29 175.4,117.85 188.64,131.09 221.73,131.09 
			234.97,117.85 		"/>
		<path class="st5" d="M248.21,280.02c0,23.76-19.26,43.02-43.02,43.02c-3.44,0-6.75-0.4-9.93-1.19
			c-19-4.44-33.09-21.51-33.09-41.83s14.1-37.4,33.09-41.83c3.18-0.79,6.49-1.19,9.93-1.19
			C228.95,236.99,248.21,256.25,248.21,280.02z"/>
		<ellipse class="st6" cx="195.26" cy="280.02" rx="33.09" ry="41.83"/>
		<path class="st5" d="M135.69,280.02c0,23.76-19.26,43.02-43.02,43.02c-3.44,0-6.75-0.4-9.93-1.19
			c-19-4.44-33.09-21.51-33.09-41.83s14.1-37.4,33.09-41.83c3.18-0.79,6.49-1.19,9.93-1.19
			C116.43,236.99,135.69,256.25,135.69,280.02z"/>
		<ellipse class="st6" cx="82.74" cy="280.02" rx="33.09" ry="41.83"/>
		<path class="st5" d="M360.73,280.02c0,23.76-19.26,43.02-43.02,43.02c-3.44,0-6.75-0.4-9.93-1.19
			c-19-4.44-33.09-21.51-33.09-41.83s14.1-37.4,33.09-41.83c3.18-0.79,6.49-1.19,9.93-1.19
			C341.47,236.99,360.73,256.25,360.73,280.02z"/>
		<ellipse class="st6" cx="307.78" cy="280.02" rx="33.09" ry="41.83"/>
		<polygon class="st3" points="387.2,336.28 387.2,428.94 274.68,428.94 274.68,336.28 261.45,334.09 287.92,329.66 301.16,342.9 
			334.25,342.9 347.49,329.66 		"/>
		<path class="st6" d="M228.35,68.21c0,0.27,0,0.6-0.07,0.86c0,0.79-0.07,1.59-0.13,2.38c-16.28-1.06-30.71-9.07-40.38-21.05
			c-3.24,4.9-7.28,9.13-12.05,12.51c1.92-15.55,12.11-28.59,26.14-34.35C217.43,34.99,228.35,50.34,228.35,68.21z"/>
		<polygon class="st3" points="274.68,336.28 274.68,428.94 135.69,428.94 135.69,336.28 142.31,335.15 148.86,334.09 175.4,329.66 
			188.64,342.9 221.73,342.9 234.97,329.66 261.38,334.09 261.45,334.09 		"/>
		<polygon class="st4" points="254.83,332.97 254.83,415.7 135.69,415.7 135.69,336.28 175.4,329.66 188.64,342.9 221.73,342.9 
			234.97,329.66 		"/>
		<polygon class="st4" points="367.35,332.97 367.35,415.7 274.68,415.7 274.68,336.28 261.45,334.09 287.92,329.66 301.16,342.9 
			334.25,342.9 347.49,329.66 		"/>
		<polygon class="st3" points="148.86,334.09 135.69,336.28 135.69,428.94 36.4,428.94 36.4,334.09 62.88,329.66 76.12,342.9 
			109.21,342.9 122.45,329.66 133.77,331.58 		"/>
		<polygon class="st4" points="148.86,334.09 135.69,336.28 135.69,415.7 36.4,415.7 36.4,334.09 62.88,329.66 76.12,342.9 
			109.21,342.9 122.45,329.66 133.77,331.58 		"/>
		<g>
			<path class="st7" d="M162.18,69.59c10.63-3.18,19.66-10.08,25.58-19.19c10.31,12.86,26.13,21.12,43.9,21.12
				c5.75,0,11.31-0.86,16.54-2.47"/>
			<circle class="st7" cx="205.18" cy="68.21" r="43.02"/>
			<polyline class="st7" points="274.68,184.04 274.68,217.14 135.69,217.14 135.69,124.47 175.4,117.85 188.64,131.09 
				221.73,131.09 234.97,117.85 274.68,124.47 			"/>
			<line class="st7" x1="162.16" y1="157.57" x2="162.16" y2="217.14"/>
			<line class="st7" x1="248.21" y1="157.57" x2="248.21" y2="217.14"/>
			<circle class="st7" cx="205.18" cy="280.02" r="43.02"/>
			<polygon class="st7" points="274.68,428.94 135.69,428.94 135.69,336.28 175.4,329.66 188.64,342.9 221.73,342.9 234.97,329.66 
				274.68,336.28 			"/>
			<line class="st7" x1="162.16" y1="369.37" x2="162.16" y2="428.94"/>
			<line class="st7" x1="248.21" y1="369.37" x2="248.21" y2="428.94"/>
			<circle class="st7" cx="317.71" cy="280.02" r="43.02"/>
			<polyline class="st7" points="261.45,334.07 287.92,329.66 301.16,342.9 334.25,342.9 347.49,329.66 387.2,336.28 387.2,428.94 
				248.21,428.94 			"/>
			<line class="st7" x1="360.73" y1="369.37" x2="360.73" y2="428.94"/>
			<circle class="st7" cx="92.66" cy="280.02" r="43.02"/>
			<line class="st7" x1="162.16" y1="428.94" x2="23.17" y2="428.94"/>
			<polyline class="st7" points="23.17,369.37 23.17,336.28 62.88,329.66 76.12,342.9 109.21,342.9 122.45,329.66 148.92,334.07 			
				"/>
			<line class="st7" x1="49.64" y1="369.37" x2="49.64" y2="428.94"/>
			<polyline class="st7" points="61.62,250.23 3.31,250.23 3.31,217.14 407.06,217.14 407.06,250.23 348.75,250.23 			"/>
			<line class="st7" x1="174.14" y1="250.23" x2="123.71" y2="250.23"/>
			<line class="st7" x1="286.66" y1="250.23" x2="236.23" y2="250.23"/>
			<line class="st7" x1="23.17" y1="402.46" x2="23.17" y2="389.23"/>
			<line class="st7" x1="274.68" y1="150.95" x2="274.68" y2="164.19"/>
			<line class="st7" x1="387.2" y1="250.23" x2="387.2" y2="336.28"/>
			<line class="st7" x1="23.17" y1="250.23" x2="23.17" y2="336.28"/>
		</g>
	</g>
	<g>
		<path class="st0" d="M401.06,52.67c0,18.71-10.01,35.09-25,44.02c-2.61,1.58-5.38,2.91-8.26,3.99c-4.35,1.64-9.01,2.69-13.86,3.08
			c-1.36,0.14-2.74,0.19-4.16,0.19s-2.8-0.06-4.16-0.19c-5.88-0.47-11.48-1.94-16.63-4.24c-1.88-0.83-3.71-1.77-5.46-2.83
			c-15-8.9-25.03-25.28-25.03-44.02c0-28.33,22.95-51.28,51.28-51.28C378.11,1.39,401.06,24.34,401.06,52.67z"/>
		<path class="st5" d="M401.06,52.67c0,27.33-21.34,49.64-48.29,51.2c-0.53-0.03-1.08-0.06-1.61-0.11c-0.94-0.08-1.86-0.17-2.77-0.3
			c-25.06-3.35-44.35-24.81-44.35-50.78s19.29-47.43,44.35-50.78c0.91-0.14,1.83-0.22,2.77-0.3c0.53-0.06,1.08-0.08,1.61-0.11
			C379.72,3.02,401.06,25.34,401.06,52.67z"/>
		<ellipse class="st6" cx="348.39" cy="52.67" rx="44.35" ry="50.78"/>
		<path class="st3" d="M387.2,52.67c0,20.68-16.74,37.42-37.42,37.42c-1.41,0-2.8-0.08-4.16-0.25
			c-18.71-2.05-33.26-17.91-33.26-37.17s14.55-35.12,33.26-37.17c1.36-0.17,2.74-0.25,4.16-0.25
			C370.46,15.25,387.2,31.99,387.2,52.67z"/>
		<ellipse class="st4" cx="345.62" cy="52.67" rx="33.26" ry="37.17"/>
		<polygon class="st2" points="367.42,35.03 343.9,58.55 332.14,46.79 326.26,52.67 343.9,70.31 349.78,64.43 373.3,40.91 		"/>
		<path class="st0" d="M376.11,96.68v73.79l-22.18-23.34l-4.16-4.38l-4.16,4.38l-22.18,23.34V96.68h0.08c1.75,1.05,3.58,2,5.46,2.83
			c5.16,2.3,10.75,3.77,16.63,4.24c1.36,0.14,2.74,0.19,4.16,0.19s2.8-0.06,4.16-0.19c4.85-0.39,9.51-1.44,13.86-3.08
			c2.88-1.08,5.65-2.41,8.26-3.99H376.11z"/>
		<path class="st1" d="M376.11,96.68v73.79l-8.32-8.76l-15.25-16.05l-2.77-2.91l-4.16,4.38l-16.63,17.52V99.51
			c5.16,2.3,10.75,3.77,16.63,4.24c1.36,0.14,2.74,0.19,4.16,0.19s2.8-0.06,4.16-0.19c4.85-0.39,9.51-1.44,13.86-3.08
			c2.88-1.08,5.65-2.41,8.26-3.99H376.11z"/>
		<path class="st2" d="M367.8,100.68v61.04l-15.25-16.05l-2.77-2.91l-4.16,4.38l-4.16-4.38l-12.47,13.14V99.51
			c5.16,2.3,10.75,3.77,16.63,4.24c1.36,0.14,2.74,0.19,4.16,0.19s2.8-0.06,4.16-0.19C358.79,103.36,363.45,102.31,367.8,100.68z"/>
		<path class="st4" d="M353.94,103.75v43.38l-4.16-4.38l-4.16,4.38v-43.38c1.36,0.14,2.74,0.19,4.16,0.19
			S352.58,103.89,353.94,103.75z"/>
		<g>
			<circle class="st8" cx="349.78" cy="52.67" r="37.42"/>
			<polygon class="st8" points="367.42,35.03 343.9,58.55 332.14,46.79 326.26,52.67 343.9,70.31 349.78,64.43 373.3,40.91 			"/>
			<path class="st8" d="M388.6,19.15c1.42,1.65,2.74,3.39,3.95,5.21"/>
			<path class="st8" d="M397.57,34.04c2.25,5.77,3.49,12.06,3.49,18.63c0,28.32-22.96,51.28-51.28,51.28S298.5,80.99,298.5,52.67
				s22.96-51.28,51.28-51.28c12.37,0,23.72,4.38,32.58,11.67"/>
			<line class="st8" x1="323.45" y1="145.52" x2="323.45" y2="96.68"/>
			<polyline class="st8" points="376.11,96.68 376.11,170.47 349.78,142.75 323.45,170.47 			"/>
			<line class="st8" x1="353.94" y1="103.78" x2="353.94" y2="147.13"/>
			<line class="st8" x1="345.62" y1="147.13" x2="345.62" y2="103.78"/>
			<line class="st8" x1="323.45" y1="159.38" x2="323.45" y2="153.84"/>
		</g>
	</g>
</g>
</svg>
