<?xml version="1.0" encoding="utf-8"?>
<!-- Generator: Adobe Illustrator 26.0.2, SVG Export Plug-In . SVG Version: 6.00 Build 0)  -->
<svg version="1.1" id="Calque_1" xmlns="http://www.w3.org/2000/svg" xmlns:xlink="http://www.w3.org/1999/xlink" x="0px" y="0px"
	 viewBox="0 0 417.22 307.69" style="enable-background:new 0 0 417.22 307.69;" xml:space="preserve">
<style type="text/css">
	.st0{fill:#FFFFFF;}
	.st1{fill:#2BAEFE;}
	.st2{fill:#33CCFF;}
	.st3{fill:#FFB612;}
	.st4{fill:#FDCC32;}
	.st5{fill:#FA6E34;}
	.st6{fill:#FA8840;}
	.st7{fill:none;stroke:#1C225C;stroke-width:6.6189;stroke-linecap:round;stroke-linejoin:round;stroke-miterlimit:10;}
	.st8{fill:none;stroke:#1C225C;stroke-width:2.7719;stroke-linecap:round;stroke-linejoin:round;stroke-miterlimit:10;}
	.st9{fill:none;stroke:#1C225C;stroke-width:4.2512;stroke-linecap:round;stroke-linejoin:round;stroke-miterlimit:10;}
	.st10{fill:#0071BC;}
	.st11{fill:#29ABE2;}
	.st12{fill:#E0E4FF;}
	.st13{fill:#1C225C;}
	.st14{clip-path:url(#SVGID_00000150824604659760999580000010459380362177686165_);}
	.st15{fill:none;stroke:#1C225C;stroke-width:6.6887;stroke-linecap:round;stroke-linejoin:round;stroke-miterlimit:10;}
	.st16{fill:none;stroke:#1C225C;stroke-width:6;stroke-linecap:round;stroke-linejoin:round;stroke-miterlimit:10;}
	.st17{fill:#FBB03B;}
	.st18{fill:none;stroke:#1C225C;stroke-width:2.4149;stroke-linecap:round;stroke-linejoin:round;stroke-miterlimit:10;}
	.st19{fill:none;stroke:#B9D5EA;stroke-width:14;stroke-linecap:round;stroke-miterlimit:10;}
	.st20{fill:#B9D5EA;}
	.st21{fill:#48BDFF;}
	.st22{fill:#DFE8ED;}
	.st23{fill:#000072;}
	.st24{opacity:0.3;}
	.st25{opacity:0.55;}
	.st26{fill:#F2355D;}
	.st27{fill:#8AC457;}
	.st28{fill:#E9F0F4;}
	.st29{opacity:0.31;}
	.st30{fill:none;stroke:#1C225C;stroke-width:2.7551;stroke-linecap:round;stroke-linejoin:round;stroke-miterlimit:10;}
	.st31{fill:none;stroke:#1C225C;stroke-width:2.5299;stroke-linecap:round;stroke-linejoin:round;stroke-miterlimit:10;}
	.st32{fill:none;stroke:#1C225C;stroke-width:1.9862;stroke-linecap:round;stroke-linejoin:round;stroke-miterlimit:10;}
</style>
<g>
	<g>
		<rect x="23.41" y="30.11" class="st0" width="367.88" height="247.48"/>
		<rect x="36.79" y="30.11" class="st10" width="354.5" height="247.48"/>
		<rect x="36.79" y="30.11" class="st11" width="334.43" height="247.48"/>
		<rect x="43.48" y="50.17" class="st12" width="327.75" height="207.35"/>
		<rect x="43.48" y="50.17" class="st0" width="307.68" height="207.35"/>
		<g>
			<defs>
				<rect id="SVGID_1_" x="196.07" y="50.43" width="175.38" height="206.24"/>
			</defs>
			<clipPath id="SVGID_00000165945452220049901520000000082511489303943049_">
				<use xlink:href="#SVGID_1_"  style="overflow:visible;"/>
			</clipPath>
			<g style="clip-path:url(#SVGID_00000165945452220049901520000000082511489303943049_);">
				<g>
					<path class="st0" d="M445.01,137.28c-1.93-8.81-5.41-17.02-10.11-24.4l11.84-11.84l-6.24-6.23l-3.73-3.73l-6.29-6.29
						l-5.83-5.83l-1.06-1.06l-4.46,4.46l-7.35,7.35c-0.88-0.55-1.76-1.09-2.66-1.62c-0.45-0.25-0.89-0.51-1.35-0.76
						c-0.45-0.25-0.91-0.5-1.37-0.74c-0.09-0.05-0.18-0.1-0.27-0.15c-0.56-0.3-1.14-0.59-1.73-0.88c-0.13-0.07-0.27-0.13-0.4-0.19
						c-0.73-0.36-1.46-0.7-2.21-1.03c-0.1-0.04-0.19-0.09-0.29-0.13c-0.1-0.04-0.21-0.09-0.31-0.14c-0.05-0.01-0.1-0.04-0.16-0.07
						c-0.09-0.04-0.19-0.08-0.28-0.12c-0.52-0.22-1.05-0.45-1.58-0.65c-0.71-0.29-1.42-0.56-2.13-0.83
						c-0.36-0.13-0.74-0.27-1.11-0.39c-0.53-0.18-1.07-0.36-1.62-0.55c-0.27-0.09-0.54-0.18-0.81-0.26c-0.01,0-0.01,0-0.02-0.01
						c-0.66-0.19-1.32-0.39-2.01-0.58c-0.3-0.09-0.61-0.18-0.91-0.26c-0.61-0.17-1.23-0.33-1.84-0.47c-0.38-0.1-0.76-0.19-1.14-0.26
						c-0.07-0.02-0.13-0.04-0.21-0.05V62.91h-32.72v16.65c-0.03,0-0.07,0.01-0.1,0.02c-0.04,0.01-0.08,0.01-0.12,0.03
						c-0.59,0.13-1.18,0.27-1.77,0.42c-0.24,0.06-0.48,0.11-0.71,0.18l-0.58,0.16c-0.4,0.1-0.8,0.22-1.2,0.34
						c-0.18,0.05-0.36,0.1-0.54,0.15c-0.18,0.05-0.36,0.1-0.54,0.16c-0.14,0.04-0.27,0.08-0.4,0.13c-0.57,0.18-1.14,0.36-1.7,0.56
						c-0.3,0.1-0.59,0.2-0.89,0.3c-0.18,0.06-0.36,0.12-0.55,0.19c-0.19,0.06-0.37,0.13-0.55,0.2c-0.2,0.07-0.4,0.15-0.6,0.23
						c-0.33,0.12-0.65,0.25-0.97,0.38c-0.01-0.01-0.01,0-0.03,0.01c-0.27,0.11-0.56,0.22-0.83,0.33c-0.02,0.01-0.04,0.01-0.06,0.02
						c-0.7,0.29-1.37,0.59-2.07,0.88c-0.02,0.01-0.04,0.02-0.07,0.03c-0.01,0.01-0.03,0.01-0.04,0.02
						c-0.51,0.23-1.03,0.45-1.53,0.69c-0.77,0.36-1.52,0.74-2.3,1.13c-0.01,0.01-0.03,0.02-0.04,0.03
						c-0.07,0.04-0.15,0.07-0.22,0.12c-0.37,0.19-0.73,0.37-1.09,0.57c-0.57,0.3-1.14,0.62-1.7,0.94c-0.06,0.03-0.09,0.06-0.15,0.09
						c-0.26,0.15-0.52,0.3-0.78,0.45c-0.77,0.45-1.55,0.92-2.28,1.39L318.41,77.9l-23.14,23.14l11.84,11.84
						c-4.73,7.35-8.18,15.59-10.11,24.4h-16.72V170H297c1.93,8.8,5.41,17.01,10.11,24.39l-11.84,11.84l23.14,23.14l11.81-11.81
						c0.46,0.3,0.92,0.58,1.39,0.87c0.44,0.26,0.88,0.53,1.32,0.78c1,0.59,2.03,1.14,3.06,1.69c0.45,0.25,0.91,0.48,1.37,0.71
						c0.47,0.24,0.94,0.46,1.42,0.68c0.06,0.03,0.12,0.06,0.18,0.09c0.01,0.01,0.02,0.01,0.04,0.01c0.47,0.22,0.94,0.43,1.42,0.64
						c0.12,0.05,0.24,0.11,0.36,0.16c0.04,0.02,0.08,0.04,0.12,0.05c0.27,0.13,0.55,0.25,0.83,0.36c0.04,0.02,0.1,0.04,0.15,0.06
						c0.09,0.04,0.18,0.08,0.27,0.12c0.3,0.13,0.62,0.25,0.93,0.38c0.12,0.04,0.23,0.09,0.34,0.13c0.25,0.1,0.51,0.2,0.77,0.3
						c0.26,0.1,0.52,0.19,0.77,0.3c0.23,0.09,0.47,0.18,0.71,0.26c0.15,0.05,0.3,0.1,0.45,0.16c0.66,0.23,1.32,0.45,1.99,0.66
						c0.08,0.03,0.16,0.06,0.25,0.08c0.45,0.14,0.91,0.28,1.37,0.42c0.36,0.1,0.73,0.21,1.09,0.3c0.18,0.05,0.36,0.1,0.54,0.14
						c0.21,0.06,0.42,0.12,0.63,0.17c0.22,0.06,0.43,0.11,0.65,0.16c0.59,0.16,1.17,0.29,1.78,0.42c0.04,0.01,0.08,0.02,0.12,0.03
						c0.03,0.01,0.06,0.02,0.09,0.02v16.65h32.72v-16.65c0.07-0.01,0.14-0.03,0.21-0.05c0.51-0.11,1.01-0.23,1.52-0.36
						c0.43-0.1,0.86-0.21,1.29-0.33c0.43-0.11,0.85-0.23,1.28-0.35c0.38-0.1,0.76-0.22,1.14-0.33c0.04-0.01,0.1-0.02,0.14-0.04
						c0.04-0.01,0.08-0.02,0.12-0.04c0.41-0.12,0.81-0.25,1.22-0.39c0.21-0.07,0.42-0.13,0.62-0.21c0.36-0.12,0.71-0.24,1.07-0.36
						c0.36-0.13,0.71-0.25,1.06-0.39c0.3-0.1,0.59-0.22,0.88-0.33c0.55-0.21,1.1-0.43,1.64-0.65c0.09-0.03,0.17-0.07,0.26-0.1
						c0.54-0.22,1.07-0.45,1.6-0.68c0.13-0.05,0.26-0.11,0.39-0.17c0.74-0.33,1.48-0.68,2.21-1.03c0.13-0.06,0.27-0.13,0.4-0.19
						c0.59-0.28,1.17-0.57,1.73-0.88c0.09-0.04,0.18-0.1,0.27-0.15c0.46-0.25,0.92-0.49,1.37-0.74c0.45-0.25,0.9-0.51,1.35-0.76
						c0.9-0.53,1.78-1.07,2.66-1.62l7.35,7.35l4.46,4.46l2.98-2.97l20.17-20.17l-11.81-11.81l-0.03-0.03
						c4.73-7.35,8.17-15.59,10.11-24.39h16.72v-32.72H445.01z M427.52,153.64c0,31.17-25.36,56.52-56.52,56.52
						c-31.17,0-56.52-25.35-56.52-56.52c0-31.16,25.36-56.52,56.52-56.52C402.17,97.12,427.52,122.48,427.52,153.64z"/>
				</g>
				<g>
					<path class="st1" d="M445.07,137.28c-1.93-8.81-5.41-17.05-10.14-24.43l11.81-11.81l-6.24-6.23l-3.73-3.73l-6.29-6.29
						l-5.83-5.83l-1.06-1.06l-4.46,4.46l-7.35,7.35c-0.88-0.56-1.76-1.1-2.66-1.62c-0.45-0.25-0.89-0.51-1.35-0.76
						c-0.45-0.25-0.91-0.5-1.37-0.74c-0.09-0.03-0.18-0.09-0.27-0.15c-0.56-0.3-1.14-0.59-1.73-0.88c-0.13-0.07-0.27-0.13-0.4-0.19
						c-0.72-0.35-1.45-0.68-2.18-1.01c-0.01-0.01-0.01-0.01-0.02-0.02c-0.08-0.07-0.16-0.1-0.25-0.13c-0.11-0.05-0.24-0.1-0.36-0.14
						c-0.05-0.03-0.1-0.04-0.16-0.07c-0.09-0.04-0.19-0.08-0.28-0.12c-0.17-0.07-0.34-0.14-0.51-0.21c-0.36-0.15-0.71-0.3-1.07-0.45
						c-0.71-0.29-1.42-0.56-2.13-0.83c-0.36-0.13-0.74-0.27-1.11-0.39c-0.53-0.18-1.07-0.36-1.62-0.55
						c-0.19-0.07-0.39-0.13-0.58-0.19c-0.07-0.02-0.16-0.04-0.23-0.07c-0.01,0-0.01,0-0.02-0.01c-0.66-0.19-1.32-0.39-2.01-0.58
						c-0.3-0.09-0.61-0.18-0.91-0.26c-0.61-0.17-1.23-0.33-1.84-0.47c-0.3-0.07-0.62-0.13-0.93-0.19c-0.07-0.03-0.14-0.05-0.21-0.07
						c-0.07-0.02-0.13-0.04-0.21-0.05V62.91h-26.77V78.5c-0.09,0-0.15,0.03-0.21,0.03c-0.74,0.09-1.46,0.21-2.18,0.36
						c-0.48,0.06-0.95,0.15-1.4,0.24c-0.23,0.04-0.46,0.08-0.68,0.13c-0.42,0.07-0.82,0.16-1.25,0.25
						c-0.07,0.01-0.16,0.03-0.24,0.06c-0.03,0-0.07,0.01-0.1,0.02c-0.04,0.01-0.08,0.01-0.12,0.03s-0.07,0.03-0.11,0.04
						c-0.12,0.03-0.24,0.06-0.36,0.09c-0.43,0.09-0.87,0.19-1.3,0.29c-0.24,0.06-0.48,0.11-0.71,0.18l-0.58,0.16
						c-0.4,0.1-0.8,0.22-1.2,0.34c-0.04,0.01-0.09,0.03-0.13,0.04c-0.13,0.04-0.27,0.07-0.4,0.1c-0.18,0.05-0.36,0.1-0.54,0.16
						c-0.14,0.04-0.27,0.08-0.4,0.13c-0.57,0.18-1.14,0.36-1.7,0.56c-0.3,0.1-0.59,0.2-0.89,0.3c-0.18,0.06-0.36,0.12-0.55,0.19
						c-0.19,0.06-0.37,0.13-0.55,0.2c-0.2,0.07-0.4,0.15-0.6,0.23c-0.33,0.12-0.65,0.25-0.97,0.38c-0.01-0.01-0.01,0-0.03,0.01
						c-0.27,0.11-0.56,0.22-0.83,0.33c-0.02,0.01-0.04,0.01-0.06,0.02c-0.7,0.29-1.37,0.59-2.07,0.88
						c-0.02,0.01-0.04,0.02-0.07,0.03c-0.01,0.01-0.03,0.01-0.04,0.02c-0.04,0.02-0.09,0.04-0.13,0.07
						c-0.45,0.21-0.86,0.39-1.31,0.59c-0.03,0-0.06,0.03-0.09,0.03c-0.77,0.36-1.52,0.74-2.3,1.13c-0.01,0.01-0.03,0.02-0.04,0.03
						c-0.01,0.01-0.03,0.01-0.04,0.03c-0.06,0.03-0.12,0.06-0.18,0.09c-0.37,0.19-0.73,0.37-1.09,0.57c-0.57,0.3-1.14,0.62-1.7,0.94
						c-0.06,0.03-0.09,0.06-0.15,0.09c-0.26,0.15-0.52,0.3-0.78,0.45c-0.77,0.45-1.55,0.92-2.28,1.39l-8.84-8.84l-20.17,20.17
						l11.84,11.84c-4.73,7.35-8.18,15.59-10.11,24.4h-16.71V170h16.71c1.93,8.8,5.42,17.01,10.11,24.39l-11.84,11.84l20.17,20.17
						l8.84-8.84c0.46,0.3,0.92,0.58,1.39,0.87c0.24,0.16,0.48,0.3,0.72,0.44c0.2,0.12,0.4,0.23,0.6,0.34c1,0.59,2.03,1.14,3.06,1.69
						c0.24,0.13,0.47,0.25,0.71,0.38c0.22,0.11,0.45,0.22,0.67,0.33c0.47,0.24,0.94,0.46,1.42,0.68c0.06,0.03,0.12,0.06,0.18,0.09
						c0.01,0.01,0.02,0.01,0.04,0.01c0.49,0.21,0.96,0.44,1.42,0.64c0.12,0.05,0.24,0.11,0.36,0.16c0.04,0.02,0.08,0.04,0.12,0.05
						c0.27,0.13,0.55,0.25,0.83,0.36c0.04,0.02,0.1,0.04,0.15,0.06c0.09,0.04,0.18,0.08,0.27,0.12c0.3,0.13,0.62,0.25,0.93,0.38
						c0.12,0.04,0.23,0.09,0.34,0.13c0.25,0.1,0.51,0.2,0.77,0.3c0.26,0.1,0.52,0.19,0.77,0.3c0.23,0.09,0.47,0.18,0.71,0.26
						c0.15,0.05,0.3,0.1,0.45,0.16c0.31,0.1,0.62,0.2,0.93,0.3c0.35,0.13,0.71,0.25,1.06,0.36c0.08,0.03,0.16,0.06,0.25,0.08
						c0.45,0.14,0.91,0.28,1.37,0.42c0.36,0.1,0.73,0.21,1.09,0.3c0.18,0.05,0.36,0.1,0.54,0.14c0.21,0.06,0.42,0.12,0.63,0.17
						c0.22,0.06,0.43,0.11,0.65,0.16c0.43,0.1,0.87,0.2,1.3,0.29c0.12,0.03,0.24,0.06,0.36,0.09c0.04,0.01,0.07,0.02,0.12,0.04
						c0.04,0.01,0.08,0.02,0.12,0.03c0.03,0.01,0.06,0.02,0.09,0.02c0.08,0.03,0.16,0.04,0.24,0.06c0.42,0.1,0.83,0.18,1.25,0.25
						c0.22,0.05,0.45,0.09,0.68,0.13c0.45,0.09,0.92,0.18,1.4,0.24c0.71,0.15,1.43,0.27,2.18,0.36c0.06,0,0.12,0.03,0.21,0.03v15.58
						h26.77v-16.65c0.07-0.01,0.14-0.03,0.21-0.05c0.07-0.01,0.13-0.04,0.21-0.07c0.44-0.09,0.88-0.19,1.31-0.29
						c0.43-0.1,0.86-0.21,1.29-0.33c0.43-0.11,0.85-0.23,1.28-0.35c0.38-0.1,0.76-0.22,1.14-0.33c0.04-0.01,0.1-0.02,0.14-0.04
						c0.04-0.01,0.08-0.02,0.12-0.04c0.41-0.12,0.81-0.25,1.22-0.39c0.21-0.07,0.42-0.13,0.62-0.21c0.24-0.07,0.48-0.15,0.71-0.23
						c0.12-0.04,0.24-0.08,0.36-0.13c0.36-0.13,0.71-0.25,1.06-0.39c0.3-0.1,0.59-0.22,0.88-0.33c0.24-0.1,0.48-0.19,0.71-0.29
						c0.31-0.12,0.62-0.24,0.94-0.36c0.09-0.03,0.17-0.07,0.26-0.1c0.22-0.09,0.45-0.18,0.68-0.27c0.16-0.07,0.33-0.14,0.51-0.22
						c0.19-0.07,0.38-0.16,0.56-0.24c0.08-0.03,0.16-0.04,0.25-0.13c0.01-0.01,0.01-0.01,0.02-0.02c0.74-0.33,1.46-0.66,2.18-1.01
						c0.13-0.06,0.27-0.13,0.4-0.19c0.59-0.28,1.17-0.57,1.73-0.88c0.09-0.06,0.18-0.12,0.27-0.15c0.46-0.25,0.92-0.49,1.37-0.74
						c0.45-0.25,0.9-0.51,1.35-0.76c0.9-0.52,1.78-1.06,2.66-1.62l7.35,7.35l4.46,4.46l2.98-2.97l20.17-20.17l-11.81-11.81
						c4.73-7.38,8.2-15.62,10.14-24.42h16.66v-32.72H445.07z M371.01,97.12c31.16,0,56.52,25.36,56.52,56.52
						c0,31.17-25.36,56.52-56.52,56.52c-31.17,0-56.52-25.35-56.52-56.52C314.48,122.48,339.84,97.12,371.01,97.12z"/>
				</g>
				<g>
					<path class="st2" d="M436.09,137.28c-1.94-8.81-5.42-17.02-10.11-24.4l11.84-11.84l-17.63-17.63l-1.06-1.06l-7.35,7.35
						c-0.88-0.56-1.76-1.1-2.66-1.62c-0.45-0.25-0.89-0.51-1.35-0.76c-0.45-0.25-0.91-0.5-1.37-0.74c-0.09-0.03-0.18-0.09-0.27-0.15
						c-0.56-0.3-1.14-0.59-1.73-0.88c-0.13-0.07-0.27-0.13-0.4-0.19c-0.72-0.35-1.45-0.68-2.18-1.01c-0.1-0.04-0.2-0.1-0.31-0.15
						c-0.1-0.04-0.21-0.09-0.31-0.14c-0.05-0.01-0.1-0.04-0.16-0.07c-0.09-0.04-0.19-0.08-0.28-0.12c-0.17-0.07-0.34-0.14-0.51-0.21
						c-0.36-0.15-0.71-0.3-1.07-0.45c-0.71-0.29-1.42-0.56-2.13-0.83c-0.36-0.13-0.74-0.27-1.11-0.39
						c-0.53-0.18-1.07-0.36-1.62-0.55c-0.19-0.07-0.39-0.13-0.58-0.19c-0.07-0.02-0.16-0.04-0.23-0.07c-0.01,0-0.01,0-0.02-0.01
						c-0.66-0.19-1.32-0.39-2.01-0.58c-0.3-0.09-0.61-0.18-0.91-0.26c-0.61-0.17-1.23-0.33-1.84-0.47c-0.3-0.07-0.62-0.13-0.93-0.19
						c-0.63-0.15-1.26-0.29-1.9-0.42c-2.43-0.5-4.91-0.87-7.44-1.13V62.91h-17.84V78.5c-0.09,0-0.15,0.03-0.21,0.03
						c-0.74,0.09-1.46,0.21-2.18,0.36c-0.48,0.06-0.95,0.15-1.4,0.24c-0.23,0.04-0.46,0.08-0.68,0.13
						c-0.42,0.07-0.82,0.16-1.25,0.25c-0.07,0.01-0.16,0.03-0.24,0.06c-0.03,0-0.07,0.01-0.1,0.02c-0.04,0.01-0.08,0.01-0.12,0.03
						s-0.07,0.03-0.11,0.04c-0.12,0.03-0.24,0.06-0.36,0.09c-0.43,0.09-0.87,0.19-1.3,0.29c-0.24,0.06-0.48,0.11-0.71,0.18
						l-0.58,0.16c-0.4,0.1-0.8,0.22-1.2,0.34c-0.04,0.01-0.09,0.03-0.13,0.04c-0.13,0.04-0.27,0.07-0.4,0.1
						c-0.18,0.05-0.36,0.1-0.54,0.16c-0.14,0.04-0.27,0.08-0.4,0.13c-0.57,0.18-1.14,0.36-1.7,0.56c-0.3,0.1-0.59,0.2-0.89,0.3
						c-0.18,0.06-0.36,0.12-0.55,0.19c-0.19,0.06-0.37,0.13-0.55,0.2c-0.2,0.07-0.4,0.15-0.6,0.23c-0.33,0.12-0.65,0.25-0.97,0.38
						c-0.01-0.01-0.01,0-0.03,0.01c-0.27,0.11-0.56,0.22-0.83,0.33c-0.02,0.01-0.04,0.01-0.06,0.02c-0.7,0.29-1.37,0.59-2.07,0.88
						c-0.02,0.01-0.04,0.02-0.07,0.03c-0.01,0.01-0.03,0.01-0.04,0.02c-0.04,0.02-0.09,0.04-0.13,0.07
						c-0.45,0.21-0.86,0.39-1.31,0.59c-0.03,0-0.06,0.03-0.09,0.03c-0.77,0.36-1.52,0.74-2.3,1.13c-0.01,0.01-0.03,0.02-0.04,0.03
						c-0.01,0.01-0.03,0.01-0.04,0.03c-0.06,0.03-0.12,0.06-0.18,0.09c-0.37,0.19-0.73,0.37-1.09,0.57c-0.57,0.3-1.14,0.62-1.7,0.94
						c-0.06,0.03-0.09,0.06-0.15,0.09c-0.26,0.15-0.52,0.3-0.78,0.45c-0.77,0.45-1.55,0.92-2.28,1.39l-8.84-8.84l-20.17,20.17
						l11.84,11.84c-4.73,7.35-8.18,15.59-10.11,24.4h-16.71V170h16.71c1.93,8.8,5.42,17.01,10.11,24.39l-11.84,11.84l20.17,20.17
						l8.84-8.84c0.46,0.3,0.92,0.58,1.39,0.87c0.24,0.16,0.48,0.3,0.72,0.44c0.2,0.12,0.4,0.23,0.6,0.34c1,0.59,2.03,1.14,3.06,1.69
						c0.24,0.13,0.47,0.25,0.71,0.38c0.22,0.11,0.45,0.22,0.67,0.33c0.47,0.24,0.94,0.46,1.42,0.68c0.06,0.03,0.12,0.06,0.18,0.09
						c0.01,0.01,0.02,0.01,0.04,0.01c0.49,0.21,0.96,0.44,1.42,0.64c0.12,0.05,0.24,0.11,0.36,0.16c0.04,0.02,0.08,0.04,0.12,0.05
						c0.27,0.13,0.55,0.25,0.83,0.36c0.04,0.02,0.1,0.04,0.15,0.06c0.09,0.04,0.18,0.08,0.27,0.12c0.3,0.13,0.62,0.25,0.93,0.38
						c0.12,0.04,0.23,0.09,0.34,0.13c0.25,0.1,0.51,0.2,0.77,0.3c0.26,0.1,0.52,0.19,0.77,0.3c0.23,0.09,0.47,0.18,0.71,0.26
						c0.15,0.05,0.3,0.1,0.45,0.16c0.31,0.1,0.62,0.2,0.93,0.3c0.35,0.13,0.71,0.25,1.06,0.36c0.08,0.03,0.16,0.06,0.25,0.08
						c0.45,0.14,0.91,0.28,1.37,0.42c0.36,0.1,0.73,0.21,1.09,0.3c0.18,0.05,0.36,0.1,0.54,0.14c0.21,0.06,0.42,0.12,0.63,0.17
						c0.22,0.06,0.43,0.11,0.65,0.16c0.43,0.1,0.87,0.2,1.3,0.29c0.12,0.03,0.24,0.06,0.36,0.09c0.04,0.01,0.07,0.02,0.12,0.04
						c0.04,0.01,0.08,0.02,0.12,0.03c0.03,0.01,0.06,0.02,0.09,0.02c0.08,0.03,0.16,0.04,0.24,0.06c0.42,0.1,0.83,0.18,1.25,0.25
						c0.22,0.05,0.45,0.09,0.68,0.13c0.45,0.09,0.92,0.18,1.4,0.24c0.71,0.15,1.43,0.27,2.18,0.36c0.06,0,0.12,0.03,0.21,0.03v15.58
						h17.84v-15.23c2.53-0.26,5.01-0.63,7.44-1.13c0.64-0.13,1.27-0.27,1.9-0.42c0.44-0.09,0.88-0.19,1.31-0.29
						c0.43-0.1,0.86-0.21,1.29-0.33c0.43-0.11,0.85-0.23,1.28-0.35c0.38-0.1,0.76-0.22,1.14-0.33c0.04-0.01,0.1-0.02,0.14-0.04
						c0.04-0.01,0.08-0.02,0.12-0.04c0.41-0.12,0.81-0.25,1.22-0.39c0.21-0.07,0.42-0.13,0.62-0.21c0.24-0.07,0.48-0.15,0.71-0.23
						c0.12-0.04,0.24-0.08,0.36-0.13c0.36-0.13,0.71-0.25,1.06-0.39c0.3-0.1,0.59-0.22,0.88-0.33c0.24-0.1,0.48-0.19,0.71-0.29
						c0.31-0.12,0.62-0.24,0.94-0.36c0.09-0.03,0.17-0.07,0.26-0.1c0.22-0.09,0.45-0.18,0.68-0.27c0.16-0.07,0.33-0.14,0.51-0.22
						c0.14-0.06,0.28-0.13,0.42-0.19c0.14-0.06,0.27-0.13,0.42-0.19c0.74-0.33,1.46-0.66,2.18-1.01c0.13-0.06,0.27-0.13,0.4-0.19
						c0.59-0.28,1.17-0.57,1.73-0.88c0.09-0.06,0.18-0.12,0.27-0.15c0.46-0.25,0.92-0.49,1.37-0.74c0.45-0.25,0.9-0.51,1.35-0.76
						c0.9-0.52,1.78-1.06,2.66-1.62l7.35,7.35l1.06-1.06l17.63-17.63l-11.84-11.84c4.73-7.35,8.17-15.59,10.11-24.39h16.71v-32.72
						H436.09z M371.01,210.15c-31.17,0-56.52-25.35-56.52-56.52c0-31.16,25.36-56.52,56.52-56.52c31.16,0,56.52,25.36,56.52,56.52
						C427.52,184.8,402.17,210.15,371.01,210.15z"/>
				</g>
				<g>
					<g>
						<path class="st13" d="M387.36,245.85h-32.72c-0.82,0-1.49-0.67-1.49-1.49v-15.48c-8.02-1.9-15.65-5.07-22.72-9.44
							l-10.97,10.97c-0.58,0.58-1.52,0.58-2.1,0c-0.58-0.58-0.58-1.52,0-2.1l11.81-11.81c0.49-0.49,1.26-0.58,1.85-0.2
							c7.39,4.73,15.45,8.08,23.94,9.95c0.68,0.15,1.17,0.75,1.17,1.45v15.18h29.75V227.7c0-0.7,0.49-1.3,1.17-1.45
							c8.46-1.86,16.51-5.21,23.93-9.95c0.59-0.38,1.36-0.29,1.85,0.2l10.76,10.76l21.03-21.03l-10.77-10.77
							c-0.49-0.49-0.58-1.27-0.2-1.85c4.7-7.34,8.03-15.39,9.91-23.92c0.15-0.68,0.76-1.17,1.45-1.17h15.23v-29.75h-15.23
							c-0.7,0-1.3-0.49-1.45-1.17c-1.87-8.48-5.21-16.53-9.92-23.91c-0.37-0.59-0.29-1.36,0.2-1.85l10.78-10.78l-4.12-4.12
							c-0.58-0.58-0.58-1.52,0-2.1c0.58-0.58,1.52-0.58,2.1,0l5.18,5.18c0.28,0.28,0.44,0.66,0.44,1.05c0,0.4-0.16,0.77-0.44,1.05
							l-10.99,10.99c4.35,7.06,7.52,14.68,9.41,22.69h15.53c0.82,0,1.49,0.67,1.49,1.49V170c0,0.82-0.67,1.49-1.49,1.49H446.2
							c-1.9,8.05-5.06,15.68-9.41,22.7l10.98,10.98c0.28,0.28,0.44,0.66,0.44,1.05s-0.16,0.77-0.44,1.05l-23.14,23.14
							c-0.58,0.58-1.52,0.58-2.1,0l-10.97-10.97c-7.09,4.38-14.72,7.55-22.72,9.45v15.48C388.85,245.19,388.19,245.85,387.36,245.85
							z"/>
					</g>
					<g>
						<path class="st13" d="M300.46,212.88c-0.38,0-0.76-0.15-1.05-0.44l-5.18-5.18c-0.28-0.28-0.44-0.66-0.44-1.05
							s0.16-0.77,0.44-1.05l10.99-10.99c-4.35-7.06-7.52-14.68-9.41-22.69h-15.53c-0.82,0-1.49-0.67-1.49-1.49v-32.72
							c0-0.82,0.67-1.49,1.49-1.49h15.53c1.9-8.05,5.06-15.68,9.41-22.7l-10.98-10.98c-0.28-0.28-0.44-0.66-0.44-1.05
							c0-0.4,0.16-0.77,0.44-1.05l23.14-23.14c0.58-0.58,1.52-0.58,2.1,0l10.97,10.97c7.09-4.38,14.72-7.55,22.72-9.45V62.91
							c0-0.82,0.67-1.49,1.49-1.49h32.72c0.82,0,1.49,0.67,1.49,1.49v15.48c8.02,1.9,15.65,5.07,22.72,9.44l10.97-10.97
							c0.58-0.58,1.52-0.58,2.1,0s0.58,1.52,0,2.1l-11.81,11.81c-0.5,0.5-1.26,0.58-1.85,0.2c-7.39-4.73-15.45-8.08-23.94-9.95
							c-0.68-0.15-1.17-0.75-1.17-1.45V64.4h-29.75v15.18c0,0.7-0.49,1.3-1.17,1.45c-8.46,1.86-16.51,5.21-23.93,9.95
							c-0.59,0.37-1.36,0.29-1.85-0.2l-10.76-10.76l-21.03,21.03l10.77,10.77c0.49,0.49,0.58,1.27,0.2,1.85
							c-4.7,7.34-8.03,15.39-9.91,23.92c-0.15,0.68-0.76,1.17-1.45,1.17h-15.23v29.75h15.23c0.7,0,1.3,0.49,1.45,1.17
							c1.87,8.48,5.21,16.53,9.92,23.91c0.37,0.59,0.29,1.36-0.2,1.85l-10.78,10.78l4.12,4.12c0.58,0.58,0.58,1.52,0,2.1
							C301.22,212.74,300.84,212.88,300.46,212.88z"/>
					</g>
					<g>
						<path class="st13" d="M310.48,222.91c-0.38,0-0.76-0.15-1.05-0.44l-4.19-4.19c-0.58-0.58-0.58-1.52,0-2.1
							c0.58-0.58,1.52-0.58,2.1,0l4.19,4.19c0.58,0.58,0.58,1.52,0,2.1C311.24,222.76,310.86,222.91,310.48,222.91z"/>
					</g>
					<g>
						<path class="st13" d="M371.01,94.15c-32.81,0-59.5,26.69-59.5,59.49c0,32.8,26.69,59.5,59.5,59.5
							c32.8,0,59.49-26.69,59.49-59.5C430.49,120.83,403.81,94.15,371.01,94.15z M371.01,210.15c-31.17,0-56.52-25.35-56.52-56.52
							c0-31.16,25.36-56.52,56.52-56.52c31.16,0,56.52,25.36,56.52,56.52C427.52,184.8,402.17,210.15,371.01,210.15z"/>
					</g>
				</g>
			</g>
		</g>
		<polygon class="st0" points="3.34,277.59 16.72,304.34 397.98,304.34 411.35,277.59 		"/>
		<polygon class="st10" points="411.35,277.59 397.98,304.34 30.1,304.34 16.72,277.59 		"/>
		<polygon class="st11" points="384.6,277.59 377.91,290.97 23.41,290.97 16.72,277.59 		"/>
		<g>
			<polyline class="st15" points="230.76,50.17 371.22,50.17 371.22,257.52 43.48,257.52 43.48,50.17 215.69,50.17 			"/>
			<line class="st15" x1="198.79" y1="30.11" x2="391.29" y2="30.11"/>
			<polyline class="st15" points="23.41,217.39 23.41,30.11 183.94,30.11 			"/>
			<polyline class="st15" points="391.29,90.31 391.29,277.59 23.41,277.59 			"/>
			<line class="st15" x1="391.29" y1="56.86" x2="391.29" y2="70.24"/>
			<line class="st15" x1="23.41" y1="250.83" x2="23.41" y2="237.46"/>
			<polygon class="st15" points="244.14,277.59 237.45,290.97 177.25,290.97 170.56,277.59 3.34,277.59 16.72,304.34 397.98,304.34 
				411.35,277.59 			"/>
		</g>
		<rect x="52.41" y="240" class="st1" width="3.53" height="9.31"/>
		<rect x="57.61" y="240" class="st1" width="3.53" height="9.31"/>
		<rect x="52.41" y="240" class="st2" width="3.53" height="5.32"/>
		<rect x="57.61" y="240" class="st2" width="3.53" height="5.32"/>
	</g>
	<g>
		<rect x="9.22" y="3.34" class="st3" width="169.04" height="138.86"/>
		<polygon class="st4" points="178.26,41.98 178.26,142.2 143.24,142.2 150.37,179.51 90,142.2 9.22,142.2 9.22,41.98 		"/>
		<g>
			<polygon class="st1" points="68.3,105.26 68.3,88.92 68.3,50.77 68.3,34.42 119.72,63.85 132.38,69.84 			"/>
			<polygon class="st2" points="68.3,88.92 68.3,72.57 68.3,50.77 68.3,34.42 119.72,63.85 			"/>
			<polygon class="st16" points="132.38,69.84 68.3,34.42 68.3,50.77 68.3,88.92 68.3,105.26 			"/>
		</g>
		<polygon class="st15" points="9.22,3.34 9.22,41.98 9.22,142.2 90,142.2 150.37,179.51 143.24,142.2 178.26,142.2 178.26,41.98 
			178.26,3.34 		"/>
	</g>
	<g>
		<path class="st0" d="M252.4,227.03c-0.43,0.43-0.86,0.85-1.31,1.25c-14.45,13.11-36.82,12.7-50.77-1.25
			c-13.95-13.95-14.36-36.32-1.25-50.77c0.4-0.45,0.82-0.89,1.25-1.31s0.86-0.85,1.31-1.25c14.45-13.11,36.82-12.7,50.77,1.25
			c13.95,13.95,14.36,36.32,1.25,50.77C253.24,226.17,252.83,226.61,252.4,227.03z"/>
		<path class="st5" d="M252.4,227.03c-13.95,13.95-36.31,14.37-50.76,1.24c-0.14-0.1-0.26-0.23-0.4-0.35l-0.04-0.04
			c-0.15-0.15-0.28-0.3-0.42-0.45c-0.14-0.15-0.27-0.31-0.4-0.45c-0.14-0.15-0.26-0.32-0.39-0.46c-0.26-0.32-0.52-0.62-0.77-0.94
			c-11.49-14.45-10.56-35.54,2.81-48.91c13.37-13.37,34.47-14.3,48.91-2.81c0.32,0.25,0.62,0.5,0.94,0.77
			c0.15,0.13,0.31,0.26,0.45,0.4c0.15,0.12,0.31,0.26,0.46,0.39c0.15,0.14,0.31,0.27,0.45,0.42l0.04,0.04
			c0.12,0.14,0.25,0.26,0.35,0.4C266.77,190.72,266.35,213.08,252.4,227.03z"/>
		
			<ellipse transform="matrix(0.7071 -0.7071 0.7071 0.7071 -75.6479 218.5027)" class="st17" cx="225.93" cy="200.57" rx="36.69" ry="33.81"/>
		<polygon class="st1" points="254.73,206.43 254.73,195.56 231.79,195.56 231.79,172.62 220.93,172.62 220.93,195.56 
			197.98,195.56 197.98,206.43 220.93,206.43 220.93,229.37 231.79,229.37 231.79,206.43 		"/>
		<polygon class="st2" points="254.73,202.8 254.73,195.56 231.79,195.56 231.79,172.62 220.93,172.62 220.93,195.56 197.98,195.56 
			197.98,202.8 220.93,202.8 220.93,225.75 231.79,225.75 231.79,202.8 		"/>
		<g>
			<path class="st18" d="M189.81,196.45c0.97-7.86,4.47-15.47,10.51-21.5c14.38-14.38,37.7-14.38,52.08,0
				c5.78,5.78,9.23,13,10.37,20.5"/>
			<path class="st18" d="M189.55,202.21c-0.03-0.83-0.03-1.65,0-2.48"/>
			<path class="st18" d="M262.91,205.47c-0.96,7.88-4.46,15.51-10.52,21.57c-14.38,14.38-37.7,14.38-52.08,0
				c-5.81-5.81-9.27-13.07-10.39-20.62"/>
			<path class="st18" d="M263.16,199.71c0.03,0.85,0.03,1.7,0,2.55"/>
			<polygon class="st18" points="254.73,206.43 254.73,195.56 231.79,195.56 231.79,172.62 220.93,172.62 220.93,195.56 
				197.98,195.56 197.98,206.43 220.93,206.43 220.93,229.37 231.79,229.37 231.79,206.43 			"/>
		</g>
	</g>
	<g>
		<g>
			<path class="st13" d="M156.62,221.58H63.06c-1.31,0-2.38-1.06-2.38-2.38s1.06-2.38,2.38-2.38h93.56c1.31,0,2.38,1.06,2.38,2.38
				S157.94,221.58,156.62,221.58z"/>
		</g>
		<g>
			<path class="st13" d="M137.3,210.95H63.06c-1.31,0-2.38-1.06-2.38-2.38s1.06-2.38,2.38-2.38h74.24c1.31,0,2.38,1.06,2.38,2.38
				S138.62,210.95,137.3,210.95z"/>
		</g>
		<g>
			<path class="st13" d="M168.7,232.22H63.06c-1.31,0-2.38-1.06-2.38-2.38s1.06-2.38,2.38-2.38H168.7c1.31,0,2.38,1.06,2.38,2.38
				S170.01,232.22,168.7,232.22z"/>
		</g>
	</g>
</g>
</svg>
