<?xml version="1.0" encoding="utf-8"?>
<!-- Generator: Adobe Illustrator 26.0.2, SVG Export Plug-In . SVG Version: 6.00 Build 0)  -->
<svg version="1.1" id="Calque_1" xmlns="http://www.w3.org/2000/svg" xmlns:xlink="http://www.w3.org/1999/xlink" x="0px" y="0px"
	 viewBox="0 0 381.37 351.7" style="enable-background:new 0 0 381.37 351.7;" xml:space="preserve">
<style type="text/css">
	.st0{fill:#FFFFFF;}
	.st1{fill:#2BAEFE;}
	.st2{fill:#33CCFF;}
	.st3{fill:#FFB612;}
	.st4{fill:#FDCC32;}
	.st5{fill:#FA6E34;}
	.st6{fill:#FA8840;}
	.st7{fill:none;stroke:#1C225C;stroke-width:6.6189;stroke-linecap:round;stroke-linejoin:round;stroke-miterlimit:10;}
	.st8{fill:none;stroke:#1C225C;stroke-width:2.7719;stroke-linecap:round;stroke-linejoin:round;stroke-miterlimit:10;}
	.st9{fill:none;stroke:#1C225C;stroke-width:4.2512;stroke-linecap:round;stroke-linejoin:round;stroke-miterlimit:10;}
	.st10{fill:#0071BC;}
	.st11{fill:#29ABE2;}
	.st12{fill:#E0E4FF;}
	.st13{fill:#1C225C;}
	.st14{clip-path:url(#SVGID_00000060032913581681537290000000183993389447660954_);}
	.st15{fill:none;stroke:#1C225C;stroke-width:6.6887;stroke-linecap:round;stroke-linejoin:round;stroke-miterlimit:10;}
	.st16{fill:none;stroke:#1C225C;stroke-width:6;stroke-linecap:round;stroke-linejoin:round;stroke-miterlimit:10;}
	.st17{fill:#FBB03B;}
	.st18{fill:none;stroke:#1C225C;stroke-width:2.4149;stroke-linecap:round;stroke-linejoin:round;stroke-miterlimit:10;}
	.st19{fill:none;stroke:#B9D5EA;stroke-width:14;stroke-linecap:round;stroke-miterlimit:10;}
	.st20{fill:#B9D5EA;}
	.st21{fill:#48BDFF;}
	.st22{fill:#DFE8ED;}
	.st23{fill:#000072;}
	.st24{opacity:0.3;}
	.st25{opacity:0.55;}
	.st26{fill:#F2355D;}
	.st27{fill:#8AC457;}
	.st28{fill:#E9F0F4;}
	.st29{opacity:0.31;}
	.st30{fill:none;stroke:#1C225C;stroke-width:2.7551;stroke-linecap:round;stroke-linejoin:round;stroke-miterlimit:10;}
	.st31{fill:none;stroke:#1C225C;stroke-width:2.5299;stroke-linecap:round;stroke-linejoin:round;stroke-miterlimit:10;}
	.st32{fill:none;stroke:#1C225C;stroke-width:1.9862;stroke-linecap:round;stroke-linejoin:round;stroke-miterlimit:10;}
</style>
<g>
	<g>
		<g>
			<path class="st5" d="M379.25,195.55c0,23.47-12.33,44.13-30.82,55.73c-3.66,2.34-7.57,4.29-11.69,5.87
				c-7.27,2.76-15.13,4.29-23.38,4.29c-2.17,0-4.29-0.09-6.38-0.3c-10.46-0.98-20.24-4.46-28.7-9.82
				c-16.83-10.59-28.53-28.57-30.52-49.4v-0.04c-0.21-2.08-0.3-4.21-0.3-6.33c0-2.13,0.09-4.25,0.3-6.33v-0.04
				c3.02-31.29,27.89-56.2,59.22-59.22c2.08-0.21,4.21-0.3,6.38-0.3C349.74,129.66,379.25,159.16,379.25,195.55z"/>
			<ellipse class="st6" cx="306.98" cy="195.55" rx="59.52" ry="65.6"/>
			<path class="st3" d="M332.48,182.8c0,10.59-8.54,19.13-19.13,19.13c-2.25,0-4.38-0.38-6.38-1.11
				c-7.44-2.59-12.75-9.69-12.75-18.02c0-8.33,5.31-15.43,12.75-18.02c2-0.72,4.12-1.11,6.38-1.11
				C323.94,163.67,332.48,172.22,332.48,182.8z"/>
			<ellipse class="st4" cx="306.98" cy="182.8" rx="12.75" ry="18.02"/>
			<path class="st1" d="M348.43,251.29c-3.66,2.34-7.57,4.29-11.69,5.87c-7.27,2.76-15.13,4.29-23.38,4.29
				c-2.17,0-4.29-0.09-6.38-0.3c-10.46-0.98-20.24-4.46-28.7-9.82l7.44-40.9l12.75-4.25l8.5,4.25h12.75l7.82-3.91l0.68-0.34
				l12.75,4.25L348.43,251.29z"/>
			<path class="st2" d="M336.73,257.15c-7.27,2.76-15.13,4.29-23.38,4.29c-2.17,0-4.29-0.09-6.38-0.3
				c-10.46-0.98-20.24-4.46-28.7-9.82l7.44-40.9l12.75-4.25l8.5,4.25h12.75l7.82-3.91L336.73,257.15z"/>
			<path class="st0" d="M251.71,68.02c0,2.17-0.09,4.29-0.3,6.38c-3.23,33.41-31.37,59.52-65.6,59.52c-2.17,0-4.29-0.09-6.38-0.3
				c-31.33-3.02-56.2-27.93-59.22-59.22v-0.04c-0.21-2.08-0.3-4.21-0.3-6.33s0.09-4.25,0.3-6.33v-0.04
				c3.02-31.29,27.89-56.2,59.22-59.22c2.08-0.21,4.21-0.3,6.38-0.3c34.22,0,62.36,26.1,65.6,59.52v0.04
				C251.63,63.77,251.71,65.89,251.71,68.02z"/>
			<path class="st5" d="M251.71,68.02c0,2.17-0.09,4.29-0.3,6.38c-2.04,20.83-13.73,38.81-30.52,49.36
				c-3.66,2.34-7.57,4.29-11.69,5.87c-5.99,2.25-12.41,3.7-19.13,4.12c-0.72,0-1.4-0.04-2.13-0.13c-1.45-0.13-2.89-0.34-4.29-0.55
				c-12.07-1.96-23.04-7.18-31.93-14.75c-12.71-10.8-21.3-26.36-23-43.91v-0.04c-0.21-2.08-0.3-4.21-0.3-6.33s0.09-4.25,0.3-6.33
				v-0.04c2.89-29.84,25.63-53.9,54.93-58.67c1.4-0.21,2.85-0.43,4.29-0.55c0.72-0.09,1.4-0.13,2.13-0.13
				c32.27,2.04,58.24,27.34,61.34,59.35v0.04C251.63,63.77,251.71,65.89,251.71,68.02z"/>
			<path class="st6" d="M238.96,68.02c0,32.78-23.93,59.94-55.31,65.04c-29.29-4.76-52.03-28.82-54.93-58.67v-0.04
				c-0.21-2.08-0.3-4.21-0.3-6.33s0.09-4.25,0.3-6.33v-0.04c2.89-29.84,25.63-53.9,54.93-58.67
				C215.02,8.08,238.96,35.24,238.96,68.02z"/>
			<path class="st3" d="M204.95,55.27c0,10.59-8.54,19.13-19.13,19.13c-2.25,0-4.38-0.38-6.38-1.11
				c-7.44-2.59-12.75-9.69-12.75-18.02c0-8.33,5.31-15.43,12.75-18.02c2-0.72,4.12-1.11,6.38-1.11
				C196.4,36.14,204.95,44.68,204.95,55.27z"/>
			<ellipse class="st4" cx="179.44" cy="55.27" rx="12.75" ry="18.02"/>
			<path class="st1" d="M220.89,123.75c-3.66,2.34-7.57,4.29-11.69,5.87c-5.99,2.25-12.41,3.7-19.13,4.12
				c-0.72,0-1.4-0.04-2.13-0.13c-1.45-0.13-2.89-0.34-4.29-0.55c-12.07-1.96-23.04-7.18-31.93-14.75l6.46-35.41l12.75-4.25l8.5,4.25
				h12.75l7.82-3.91l0.68-0.34l12.75,4.25L220.89,123.75z"/>
			<path class="st2" d="M209.2,129.62c-5.99,2.25-12.41,3.7-19.13,4.12c-0.72,0-1.4-0.04-2.13-0.13c-1.45-0.13-2.89-0.34-4.29-0.55
				c-12.07-1.96-23.04-7.18-31.93-14.75l6.46-35.41l12.75-4.25l8.5,4.25h12.75l7.82-3.91L209.2,129.62z"/>
			<path class="st2" d="M332.48,106.2l-19.13,21.26l-19.13-21.26h12.75V74.4h-55.56c0.21-2.08,0.3-4.21,0.3-6.38
				c0-2.13-0.09-4.25-0.3-6.33v-0.04h68.32v44.55H332.48z"/>
			<path class="st2" d="M307.74,261.53c2.08,0.21,4.21,0.3,6.33,0.3s4.25-0.09,6.33-0.3h0.04v34.82h-86.11v12.75l-21.26-19.13
				l21.26-19.13v12.75h73.35v-22.07H307.74z"/>
			<line class="st9" x1="320.45" y1="266.16" x2="320.45" y2="261.53"/>
			<polyline class="st9" points="307.7,261.53 307.7,283.6 234.34,283.6 234.34,270.85 213.09,289.98 234.34,309.11 234.34,296.36 
				320.45,296.36 			"/>
			<line class="st9" x1="320.45" y1="279.35" x2="320.45" y2="278.91"/>
			<path class="st2" d="M73.84,160.87c-2.08-0.21-4.21-0.3-6.33-0.3s-4.25,0.09-6.33,0.3h-0.04V61.54h34.01V48.79l21.26,19.13
				L95.14,87.05V74.3H73.88v86.57H73.84z"/>
			<line class="st9" x1="61.13" y1="99.8" x2="61.13" y2="160.88"/>
			<polyline class="st9" points="73.88,160.88 73.88,74.3 95.14,74.3 95.14,87.05 116.4,67.92 95.14,48.79 95.14,61.54 61.13,61.54 
							"/>
			<line class="st9" x1="61.13" y1="78.55" x2="61.13" y2="87.05"/>
			<g>
				<circle class="st9" cx="313.35" cy="182.8" r="19.13"/>
				<polyline class="st9" points="278.28,251.35 285.72,210.43 298.47,206.18 306.98,210.43 319.73,210.43 328.23,206.18 
					340.99,210.43 348.42,251.35 				"/>
				<circle class="st9" cx="313.35" cy="195.55" r="65.89"/>
				<circle class="st9" cx="185.82" cy="55.27" r="19.13"/>
				<polyline class="st9" points="150.75,123.81 158.19,82.9 170.94,78.65 179.44,82.9 192.19,82.9 200.7,78.65 213.45,82.9 
					220.89,123.81 				"/>
				<circle class="st9" cx="185.82" cy="68.02" r="65.89"/>
				<line class="st9" x1="281.47" y1="61.64" x2="251.41" y2="61.64"/>
				<polyline class="st9" points="251.41,74.4 306.98,74.4 306.98,106.2 294.22,106.2 313.35,127.45 332.48,106.2 319.73,106.2 
					319.73,61.64 				"/>
				<line class="st9" x1="302.73" y1="61.64" x2="294.22" y2="61.64"/>
			</g>
		</g>
		<g>
			<g>
				<polygon class="st0" points="132.28,343.11 80.74,343.11 87.61,308.75 125.41,308.75 				"/>
			</g>
			<g>
				<polygon class="st10" points="132.28,343.11 87.61,343.11 94.48,308.75 125.41,308.75 				"/>
			</g>
			<g>
				<polygon class="st11" points="121.97,343.11 87.61,343.11 94.48,308.75 115.1,308.75 				"/>
			</g>
			<g>
				<rect x="63.56" y="343.11" class="st0" width="85.89" height="6.87"/>
			</g>
			<g>
				<rect x="70.43" y="343.11" class="st10" width="79.02" height="6.87"/>
			</g>
			<g>
				<rect x="1.72" y="274.4" class="st0" width="209.58" height="34.36"/>
			</g>
			<g>
				<rect x="8.59" y="274.4" class="st10" width="202.71" height="34.36"/>
			</g>
			<g>
				<rect x="8.59" y="274.4" class="st11" width="192.4" height="34.36"/>
			</g>
			<g>
				<rect x="1.72" y="161.02" class="st12" width="209.58" height="113.38"/>
			</g>
			<g>
				<rect x="1.72" y="161.02" class="st0" width="199.27" height="113.38"/>
			</g>
			<g>
				<path class="st1" d="M94.48,193.65c0,10.44-8.45,18.9-18.9,18.9c-1.79,0-3.5-0.24-5.15-0.72c-7.94-2.23-13.74-9.52-13.74-18.18
					c0-8.66,5.81-15.94,13.74-18.18c1.65-0.48,3.37-0.72,5.15-0.72C86.03,174.76,94.48,183.21,94.48,193.65z"/>
			</g>
			<g>
				<ellipse class="st2" cx="70.43" cy="193.65" rx="13.74" ry="18.18"/>
			</g>
			<g>
				<polygon class="st1" points="108.23,260.65 42.95,260.65 49.82,219.42 63.56,215.99 70.43,222.86 80.74,222.86 87.61,215.99 
					90.6,216.74 101.35,219.42 				"/>
			</g>
			<g>
				<polygon class="st2" points="97.92,260.65 42.95,260.65 49.82,219.42 63.56,215.99 70.43,222.86 80.74,222.86 87.61,215.99 
					90.6,216.74 				"/>
			</g>
			<g>
				<polygon class="st3" points="170.07,191.94 170.07,233.17 121.97,233.17 121.97,202.24 104.79,191.94 				"/>
			</g>
			<g>
				<polygon class="st4" points="159.76,191.94 159.76,233.17 121.97,233.17 121.97,202.24 104.79,191.94 				"/>
			</g>
			<g>
				<g>
					<path class="st13" d="M75.59,214.27c-11.37,0-20.61-9.25-20.61-20.61c0-11.37,9.25-20.61,20.61-20.61s20.61,9.25,20.61,20.61
						C96.2,205.02,86.95,214.27,75.59,214.27z M75.59,176.48c-9.47,0-17.18,7.71-17.18,17.18c0,9.47,7.71,17.18,17.18,17.18
						s17.18-7.71,17.18-17.18C92.77,184.18,85.06,176.48,75.59,176.48z"/>
				</g>
				<g>
					<path class="st13" d="M108.23,262.37H42.95c-0.51,0-0.98-0.22-1.31-0.61c-0.33-0.39-0.47-0.89-0.38-1.39l6.87-41.23
						c0.11-0.67,0.61-1.22,1.28-1.38l13.74-3.44c0.59-0.15,1.21,0.03,1.63,0.45l6.37,6.37h8.88l6.37-6.37
						c0.43-0.42,1.05-0.6,1.63-0.45l13.74,3.44c0.66,0.16,1.17,0.71,1.28,1.38l6.87,41.23c0.08,0.5-0.06,1.01-0.38,1.39
						C109.21,262.15,108.73,262.37,108.23,262.37z M44.97,258.93h61.23l-6.35-38.12l-11.71-2.93l-6.18,6.18
						c-0.32,0.32-0.76,0.5-1.21,0.5H70.43c-0.46,0-0.89-0.18-1.21-0.5l-6.18-6.18l-11.71,2.93L44.97,258.93z"/>
				</g>
				<g>
					<path class="st13" d="M132.28,344.83H80.74c-0.51,0-1-0.23-1.33-0.63c-0.33-0.4-0.46-0.92-0.36-1.43l6.87-34.36
						c0.16-0.8,0.87-1.38,1.68-1.38h37.79c0.82,0,1.52,0.58,1.68,1.38l6.87,34.36c0.1,0.5-0.03,1.03-0.36,1.43
						C133.28,344.6,132.79,344.83,132.28,344.83z M82.84,341.39h47.34L124,310.47H89.02L82.84,341.39z"/>
				</g>
				<g>
					<path class="st13" d="M149.46,351.7H63.56c-0.95,0-1.72-0.77-1.72-1.72v-6.87c0-0.95,0.77-1.72,1.72-1.72h85.89
						c0.95,0,1.72,0.77,1.72,1.72v6.87C151.17,350.93,150.41,351.7,149.46,351.7z M65.28,348.26h82.46v-3.44H65.28V348.26z"/>
				</g>
				<g>
					<path class="st13" d="M211.3,310.47H1.72c-0.95,0-1.72-0.77-1.72-1.72c0-0.95,0.77-1.72,1.72-1.72h207.86v-30.92H3.44v1.72
						c0,0.95-0.77,1.72-1.72,1.72S0,278.78,0,277.83v-3.44c0-0.95,0.77-1.72,1.72-1.72H211.3c0.95,0,1.72,0.77,1.72,1.72v34.36
						C213.02,309.7,212.25,310.47,211.3,310.47z"/>
				</g>
				<g>
					<path class="st13" d="M211.3,276.11H1.72c-0.95,0-1.72-0.77-1.72-1.72V161.02c0-0.95,0.77-1.72,1.72-1.72H211.3
						c0.95,0,1.72,0.77,1.72,1.72c0,0.95-0.77,1.72-1.72,1.72H3.44v109.94h206.15v-80.74c0-0.95,0.77-1.72,1.72-1.72
						c0.95,0,1.72,0.77,1.72,1.72v82.46C213.02,275.34,212.25,276.11,211.3,276.11z"/>
				</g>
				<g>
					<path class="st13" d="M211.3,183.35c-0.95,0-1.72-0.77-1.72-1.72v-6.87c0-0.95,0.77-1.72,1.72-1.72c0.95,0,1.72,0.77,1.72,1.72
						v6.87C213.02,182.58,212.25,183.35,211.3,183.35z"/>
				</g>
				<g>
					<path class="st13" d="M1.72,296.73c-0.95,0-1.72-0.77-1.72-1.72v-6.87c0-0.95,0.77-1.72,1.72-1.72s1.72,0.77,1.72,1.72v6.87
						C3.44,295.96,2.67,296.73,1.72,296.73z"/>
				</g>
				<g>
					<path class="st13" d="M170.07,234.88h-48.1c-0.95,0-1.72-0.77-1.72-1.72v-29.95l-16.34-9.81c-0.66-0.4-0.98-1.19-0.77-1.93
						c0.2-0.74,0.88-1.26,1.65-1.26h65.28c0.95,0,1.72,0.77,1.72,1.72v41.23C171.79,234.12,171.02,234.88,170.07,234.88z
						 M123.69,231.45h44.66v-37.79h-57.36l11.86,7.12c0.52,0.31,0.84,0.87,0.84,1.47V231.45z"/>
				</g>
				<g>
					<path class="st13" d="M159.76,214.27h-27.49c-0.95,0-1.72-0.77-1.72-1.72s0.77-1.72,1.72-1.72h27.49
						c0.95,0,1.72,0.77,1.72,1.72S160.71,214.27,159.76,214.27z"/>
				</g>
				<g>
					<path class="st13" d="M159.76,203.96h-27.49c-0.95,0-1.72-0.77-1.72-1.72c0-0.95,0.77-1.72,1.72-1.72h27.49
						c0.95,0,1.72,0.77,1.72,1.72C161.48,203.19,160.71,203.96,159.76,203.96z"/>
				</g>
				<g>
					<path class="st13" d="M159.76,224.58h-27.49c-0.95,0-1.72-0.77-1.72-1.72c0-0.95,0.77-1.72,1.72-1.72h27.49
						c0.95,0,1.72,0.77,1.72,1.72C161.48,223.81,160.71,224.58,159.76,224.58z"/>
				</g>
			</g>
		</g>
	</g>
	<g>
		<g>
			<rect x="123.25" y="241.78" class="st0" width="48.37" height="45.99"/>
		</g>
		<g>
			<rect x="124.84" y="241.78" class="st1" width="46.79" height="45.99"/>
		</g>
		<g>
			<rect x="124.84" y="241.78" class="st2" width="44.41" height="44.41"/>
		</g>
		<g>
			<rect x="124.84" y="241.78" class="st5" width="46.79" height="8.72"/>
		</g>
		<g>
			<rect x="124.84" y="241.78" class="st6" width="44.41" height="8.72"/>
		</g>
		<g>
			<rect x="135.94" y="239.4" class="st3" width="3.17" height="4.76"/>
		</g>
		<g>
			<rect x="155.77" y="239.4" class="st3" width="3.17" height="4.76"/>
		</g>
		<g>
			<rect x="155.77" y="239.4" class="st4" width="1.59" height="4.76"/>
		</g>
		<g>
			<rect x="135.94" y="239.4" class="st4" width="1.59" height="4.76"/>
		</g>
		<g>
			<path class="st12" d="M160.52,269.14c0,6.83-5.23,12.43-11.89,13.03c-0.39,0.04-0.79,0.06-1.19,0.06s-0.8-0.02-1.19-0.06
				c-6.67-0.59-11.89-6.2-11.89-13.03c0-6.83,5.23-12.43,11.89-13.03c0.39-0.04,0.79-0.06,1.19-0.06s0.8,0.02,1.19,0.06
				C155.3,256.7,160.52,262.31,160.52,269.14z"/>
		</g>
		<g>
			<ellipse class="st0" cx="146.25" cy="269.14" rx="11.89" ry="13.03"/>
		</g>
		<g>
			<path class="st6" d="M149.42,269.14c0,0.25-0.05,0.5-0.13,0.72l-0.01,0.01c-0.2,0.51-0.6,0.91-1.11,1.11l-0.01,0.01
				c-0.22,0.09-0.47,0.13-0.72,0.13c-1.09,0-1.98-0.89-1.98-1.98s0.89-1.98,1.98-1.98c0.25,0,0.5,0.05,0.72,0.13l0.01,0.01
				c0.51,0.2,0.91,0.6,1.11,1.11l0.01,0.01C149.38,268.64,149.42,268.88,149.42,269.14z"/>
		</g>
		<g>
			<path class="st4" d="M154.93,262.76l-5.65,5.65l-0.01-0.01c-0.2-0.51-0.6-0.91-1.11-1.11l-0.01-0.01l5.65-5.65L154.93,262.76z"/>
		</g>
		<g>
			<path class="st4" d="M148.63,279.05v3.12c-0.39,0.04-0.79,0.06-1.19,0.06s-0.8-0.02-1.19-0.06v-3.12H148.63z"/>
		</g>
		<g>
			<path class="st4" d="M148.63,256.11v3.12h-2.38v-3.12c0.39-0.04,0.79-0.06,1.19-0.06S148.24,256.07,148.63,256.11z"/>
		</g>
		<g>
			<path class="st4" d="M137.53,270.33h-3.12c-0.04-0.39-0.06-0.79-0.06-1.19c0-0.4,0.02-0.8,0.06-1.19h3.12V270.33z"/>
		</g>
		<g>
			<path class="st4" d="M160.47,270.33h-3.12v-2.38h3.12c0.04,0.39,0.06,0.79,0.06,1.19C160.52,269.54,160.51,269.94,160.47,270.33z
				"/>
		</g>
		<g>
			<path class="st4" d="M154.93,275.51l-1.12,1.12l-5.65-5.65l0.01-0.01c0.51-0.2,0.91-0.6,1.11-1.11l0.01-0.01L154.93,275.51z"/>
		</g>
		<g>
			<g>
				<path class="st13" d="M147.44,282.62c-7.43,0-13.48-6.05-13.48-13.48c0-7.43,6.05-13.48,13.48-13.48s13.48,6.05,13.48,13.48
					C160.92,276.57,154.87,282.62,147.44,282.62z M147.44,256.45c-7,0-12.69,5.69-12.69,12.69c0,7,5.69,12.69,12.69,12.69
					s12.69-5.69,12.69-12.69C160.13,262.14,154.44,256.45,147.44,256.45z"/>
			</g>
			<g>
				<path class="st13" d="M147.44,271.52c-1.31,0-2.38-1.07-2.38-2.38c0-1.31,1.07-2.38,2.38-2.38c1.31,0,2.38,1.07,2.38,2.38
					C149.82,270.45,148.75,271.52,147.44,271.52z M147.44,267.55c-0.87,0-1.59,0.71-1.59,1.59s0.71,1.59,1.59,1.59
					c0.87,0,1.59-0.71,1.59-1.59S148.32,267.55,147.44,267.55z"/>
			</g>
			<g>
				<path class="st13" d="M149.29,268.81c-0.1,0-0.2-0.04-0.28-0.12c-0.15-0.15-0.15-0.41,0-0.56l5.37-5.37l-0.56-0.56l-5.37,5.37
					c-0.15,0.15-0.41,0.15-0.56,0s-0.15-0.41,0-0.56l5.65-5.65c0.15-0.15,0.41-0.15,0.56,0l1.12,1.12c0.15,0.15,0.15,0.41,0,0.56
					l-5.65,5.65C149.49,268.77,149.39,268.81,149.29,268.81z"/>
			</g>
			<g>
				<path class="st13" d="M148.63,282.57c-0.22,0-0.4-0.18-0.4-0.4v-2.72h-1.59v2.72c0,0.22-0.18,0.4-0.4,0.4
					c-0.22,0-0.4-0.18-0.4-0.4v-3.12c0-0.22,0.18-0.4,0.4-0.4h2.38c0.22,0,0.4,0.18,0.4,0.4v3.12
					C149.03,282.39,148.85,282.57,148.63,282.57z"/>
			</g>
			<g>
				<path class="st13" d="M148.63,259.62h-2.38c-0.22,0-0.4-0.18-0.4-0.4v-3.12c0-0.22,0.18-0.4,0.4-0.4c0.22,0,0.4,0.18,0.4,0.4
					v2.72h1.59v-2.72c0-0.22,0.18-0.4,0.4-0.4c0.22,0,0.4,0.18,0.4,0.4v3.12C149.03,259.44,148.85,259.62,148.63,259.62z"/>
			</g>
			<g>
				<path class="st13" d="M137.53,270.72h-3.12c-0.22,0-0.4-0.18-0.4-0.4c0-0.22,0.18-0.4,0.4-0.4h2.72v-1.59h-2.72
					c-0.22,0-0.4-0.18-0.4-0.4c0-0.22,0.18-0.4,0.4-0.4h3.12c0.22,0,0.4,0.18,0.4,0.4v2.38
					C137.92,270.55,137.75,270.72,137.53,270.72z"/>
			</g>
			<g>
				<path class="st13" d="M160.47,270.72h-3.12c-0.22,0-0.4-0.18-0.4-0.4v-2.38c0-0.22,0.18-0.4,0.4-0.4h3.12
					c0.22,0,0.4,0.18,0.4,0.4c0,0.22-0.18,0.4-0.4,0.4h-2.72v1.59h2.72c0.22,0,0.4,0.18,0.4,0.4
					C160.87,270.55,160.69,270.72,160.47,270.72z"/>
			</g>
			<g>
				<path class="st13" d="M171.63,288.17h-48.37c-0.22,0-0.4-0.18-0.4-0.4s0.18-0.4,0.4-0.4h47.98v-38.46c0-0.22,0.18-0.4,0.4-0.4
					c0.22,0,0.4,0.18,0.4,0.4v38.86C172.02,287.99,171.85,288.17,171.63,288.17z"/>
			</g>
			<g>
				<path class="st13" d="M123.25,281.03c-0.22,0-0.4-0.18-0.4-0.4v-38.86c0-0.22,0.18-0.4,0.4-0.4h12.69c0.22,0,0.4,0.18,0.4,0.4
					c0,0.22-0.18,0.4-0.4,0.4h-12.29v38.46C123.65,280.86,123.47,281.03,123.25,281.03z"/>
			</g>
			<g>
				<path class="st13" d="M171.63,242.18h-12.69c-0.22,0-0.4-0.18-0.4-0.4c0-0.22,0.18-0.4,0.4-0.4h12.69c0.22,0,0.4,0.18,0.4,0.4
					C172.02,242,171.85,242.18,171.63,242.18z"/>
			</g>
			<g>
				<path class="st13" d="M139.11,244.56h-3.17c-0.22,0-0.4-0.18-0.4-0.4v-4.76c0-0.22,0.18-0.4,0.4-0.4h3.17
					c0.22,0,0.4,0.18,0.4,0.4v4.76C139.51,244.38,139.33,244.56,139.11,244.56z M136.34,243.76h2.38v-3.96h-2.38V243.76z"/>
			</g>
			<g>
				<path class="st13" d="M158.94,244.56h-3.17c-0.22,0-0.4-0.18-0.4-0.4v-4.76c0-0.22,0.18-0.4,0.4-0.4h3.17
					c0.22,0,0.4,0.18,0.4,0.4v4.76C159.34,244.38,159.16,244.56,158.94,244.56z M156.16,243.76h2.38v-3.96h-2.38V243.76z"/>
			</g>
			<g>
				<path class="st13" d="M171.63,250.9h-48.37c-0.22,0-0.4-0.18-0.4-0.4c0-0.22,0.18-0.4,0.4-0.4h48.37c0.22,0,0.4,0.18,0.4,0.4
					C172.02,250.72,171.85,250.9,171.63,250.9z"/>
			</g>
			<g>
				<path class="st13" d="M171.63,246.93c-0.22,0-0.4-0.18-0.4-0.4v-1.59c0-0.22,0.18-0.4,0.4-0.4c0.22,0,0.4,0.18,0.4,0.4v1.59
					C172.02,246.76,171.85,246.93,171.63,246.93z"/>
			</g>
			<g>
				<path class="st13" d="M123.25,285c-0.22,0-0.4-0.18-0.4-0.4v-1.59c0-0.22,0.18-0.4,0.4-0.4c0.22,0,0.4,0.18,0.4,0.4v1.59
					C123.65,284.82,123.47,285,123.25,285z"/>
			</g>
			<g>
				<path class="st13" d="M155.77,242.18h-16.65c-0.22,0-0.4-0.18-0.4-0.4c0-0.22,0.18-0.4,0.4-0.4h16.65c0.22,0,0.4,0.18,0.4,0.4
					C156.16,242,155.99,242.18,155.77,242.18z"/>
			</g>
			<g>
				<path class="st13" d="M153.81,277.03c-0.1,0-0.2-0.04-0.28-0.12l-5.65-5.65c-0.15-0.15-0.15-0.41,0-0.56
					c0.15-0.15,0.41-0.15,0.56,0l5.37,5.37l0.56-0.56l-5.37-5.37c-0.15-0.15-0.15-0.41,0-0.56s0.41-0.15,0.56,0l5.65,5.65
					c0.15,0.15,0.15,0.41,0,0.56l-1.12,1.12C154.02,276.99,153.91,277.03,153.81,277.03z"/>
			</g>
		</g>
	</g>
</g>
</svg>
