<?xml version="1.0" encoding="utf-8"?>
<!-- Generator: Adobe Illustrator 26.0.2, SVG Export Plug-In . SVG Version: 6.00 Build 0)  -->
<svg version="1.1" id="Calque_1" xmlns="http://www.w3.org/2000/svg" xmlns:xlink="http://www.w3.org/1999/xlink" x="0px" y="0px"
	 viewBox="0 0 500 397.4" style="enable-background:new 0 0 500 397.4;" xml:space="preserve">
<style type="text/css">
	.st0{opacity:0.7;fill:#BDCCDB;enable-background:new    ;}
	.st1{fill:#F74686;}
	.st2{fill:#FFFFFF;}
	.st3{fill:url(#SVGID_1_);}
	.st4{fill:url(#SVGID_00000013190265858634812650000011861336375482381969_);}
	.st5{fill:url(#SVGID_00000175314328605933814040000012366292416377175433_);}
	.st6{fill:url(#SVGID_00000164501521930151987340000011611166289414142888_);}
	.st7{fill:url(#SVGID_00000144299991526749846010000016861417962531899580_);}
	.st8{fill:url(#SVGID_00000024716985233633065950000000109483022351481750_);}
	.st9{fill:url(#SVGID_00000016758625937942875920000001482651793507026362_);}
	.st10{fill:#5AA5FF;}
	.st11{opacity:0.4;fill:url(#SVGID_00000168112371330973309740000016659246094630949553_);enable-background:new    ;}
	.st12{fill:url(#SVGID_00000077321205707766189680000017889801993347497658_);}
	.st13{fill:url(#SVGID_00000021805636616010193810000000900150405786771338_);}
	.st14{fill:url(#SVGID_00000035522030464000602180000015782856457337589178_);}
	.st15{fill:url(#SVGID_00000070112788763972273560000007230008133188775557_);}
	.st16{fill:url(#SVGID_00000124883807314271704800000017225220494314349246_);}
	.st17{fill:#7C3212;}
	.st18{fill:#F4B67D;}
	.st19{fill:#FFC384;}
	.st20{fill:#934016;}
	.st21{fill:#E8E8E8;}
	.st22{fill:#B2B2B2;}
	.st23{fill:#EAA36A;}
	.st24{fill:#3B3559;}
	.st25{fill:#F4F4F4;}
	.st26{fill:#514772;}
	.st27{fill:#AA642B;}
	.st28{fill:#7C3E14;}
	.st29{fill:#FF6417;}
	.st30{fill:#FF7C1A;}
	.st31{fill:#544745;}
	.st32{fill:#EF9020;}
	.st33{fill:#5E4949;}
	.st34{fill:#EAEAEA;}
	.st35{fill:#4C3C3C;}
	.st36{fill:#FFCD46;}
	.st37{fill:#04385B;}
	.st38{fill:#042942;}
	.st39{fill:#073B66;}
	.st40{fill:#E5E5E5;}
	.st41{fill:#D8D8D8;}
	.st42{fill:#AFAFAF;}
	.st43{fill:#939393;}
	.st44{fill:#FFA631;}
	.st45{fill:#684540;}
	.st46{fill:#492012;}
	.st47{fill:#BABABA;}
	.st48{fill:#F2F2F2;}
	.st49{fill:url(#SVGID_00000109724852145801863830000010878220480081475972_);}
	.st50{fill:url(#SVGID_00000024706374621854631070000010520817318558461074_);}
	.st51{fill:url(#SVGID_00000073708438013800022040000001833518843177273220_);}
	.st52{fill:url(#SVGID_00000077286626052579105120000009310098647267505575_);}
	.st53{fill:url(#SVGID_00000171704752752577334070000017452088911689416600_);}
	.st54{fill:url(#SVGID_00000070823028268184677280000016940828770311397535_);}
	.st55{fill:url(#SVGID_00000161611817730306461020000008449173320815915453_);}
	.st56{fill:#160900;}
	.st57{fill:#9B8978;}
	.st58{fill:#564C44;}
	.st59{fill:#1C2A33;}
	.st60{fill:#056FAA;}
	.st61{fill:#381904;}
	.st62{fill:#E2E2E2;}
	.st63{fill:#A3A3A3;}
	.st64{fill:#4C4C4C;}
	.st65{fill:#F2B175;}
	.st66{fill:#D1651C;}
	.st67{fill:#FFB533;}
</style>
<g>
	<g>
		<path class="st0" d="M500,377.5c0,6.9-111.9,12.5-250,12.5S0,384.4,0,377.5S111.9,365,250,365S500,370.6,500,377.5z"/>
		<g>
			<g>
				<g>
					<path class="st1" d="M135.8,284.2c0,34.7-28.2,62.9-62.9,62.9C38.1,347.1,10,319,10,284.2c0-34.7,28.2-62.9,62.9-62.9
						C107.6,221.3,135.8,249.5,135.8,284.2z"/>
				</g>
				<g>
					<path class="st2" d="M72.9,335.4c-28.2,0-51.2-22.9-51.2-51.2c0-28.2,22.9-51.2,51.2-51.2c28.2,0,51.2,22.9,51.2,51.2
						C124,312.4,101.1,335.4,72.9,335.4z M72.9,238.9c-25,0-45.3,20.3-45.3,45.3s20.3,45.3,45.3,45.3s45.3-20.3,45.3-45.3
						C118.2,259.2,97.9,238.9,72.9,238.9z"/>
				</g>
				<g>
					<path class="st2" d="M72.9,318.6c-19,0-34.4-15.4-34.4-34.4s15.4-34.4,34.4-34.4c18.9,0,34.4,15.4,34.4,34.4
						S91.8,318.6,72.9,318.6z M72.9,255.7c-15.7,0-28.5,12.8-28.5,28.5s12.8,28.5,28.5,28.5s28.5-12.8,28.5-28.5
						S88.6,255.7,72.9,255.7z"/>
				</g>
				<g>
					<path class="st2" d="M72.9,303.1c-10.4,0-18.8-8.4-18.8-18.8s8.4-18.8,18.8-18.8s18.8,8.4,18.8,18.8
						C91.7,294.6,83.3,303.1,72.9,303.1z M72.9,271.2c-7.2,0-13,5.8-13,13s5.8,13,13,13s13-5.8,13-13
						C85.9,277.1,80.1,271.2,72.9,271.2z"/>
				</g>
			</g>
			<g>
				<g>
					
						<linearGradient id="SVGID_1_" gradientUnits="userSpaceOnUse" x1="229.7504" y1="91.7485" x2="326.9037" y2="91.7485" gradientTransform="matrix(1 0 0 -1 0 395.7323)">
						<stop  offset="0" style="stop-color:#1D0D45"/>
						<stop  offset="0.1847" style="stop-color:#1A134D"/>
						<stop  offset="0.4695" style="stop-color:#132262"/>
						<stop  offset="0.8169" style="stop-color:#073B86"/>
						<stop  offset="1" style="stop-color:#004A9B"/>
					</linearGradient>
					<path class="st3" d="M326.8,244.7c0,0-19.2,114.5-22.3,121.3c-30.9,1-60.8,0.1-61.5,0c-0.9-0.1-13-3.6-13-3.6s-2.5-13,5.8-16.8
						s24-11.7,31.2-43.2c7.3-31.5,12.6-60.9,12.6-60.9L326.8,244.7z"/>
					
						<linearGradient id="SVGID_00000101090210186287880650000011226394148691614644_" gradientUnits="userSpaceOnUse" x1="242.9943" y1="91.6489" x2="331.6" y2="91.6489" gradientTransform="matrix(1 0 0 -1 0 395.7323)">
						<stop  offset="0" style="stop-color:#004A9B"/>
						<stop  offset="0.1831" style="stop-color:#073B86"/>
						<stop  offset="0.5305" style="stop-color:#132262"/>
						<stop  offset="0.8153" style="stop-color:#1A134D"/>
						<stop  offset="1" style="stop-color:#1D0D45"/>
					</linearGradient>
					<path style="fill:url(#SVGID_00000101090210186287880650000011226394148691614644_);" d="M331.6,244.7
						c0,0-19.2,114.5-22.3,121.3c-44.5,1.5-66.2,0-66.2,0s-1.5-16.6,6.8-20.4c8.3-3.8,24-11.7,31.2-43.2
						c7.3-31.5,12.6-60.9,12.6-60.9L331.6,244.7z"/>
				</g>
				<g>
					<g>
						
							<linearGradient id="SVGID_00000073718903678483419030000003176740675577375402_" gradientUnits="userSpaceOnUse" x1="369.2507" y1="165.8323" x2="369.2507" y2="241.6323" gradientTransform="matrix(1 0 0 -1 0 395.7323)">
							<stop  offset="0" style="stop-color:#FFFFFF"/>
							<stop  offset="0.4028" style="stop-color:#E3E7F5"/>
							<stop  offset="0.9897" style="stop-color:#B3BFE3"/>
						</linearGradient>
						<path style="fill:url(#SVGID_00000073718903678483419030000003176740675577375402_);" d="M386.7,157.4c-3.5-2-25-2.8-47.3-3.3
							c1.5,0.3,2.6,0.6,3.2,0.9c7.3,0,13.3,16.6,13.3,37s-5.9,37-13.3,37c-0.6,0.4-1.7,0.7-3.2,0.9c22.3-0.5,43.8-1.3,47.3-3.3
							c6.9,0,12.4-15.5,12.4-34.6C399.2,172.9,393.6,157.4,386.7,157.4z"/>
					</g>
					
						<linearGradient id="SVGID_00000013915201461170222320000002633107852790256271_" gradientUnits="userSpaceOnUse" x1="103.1" y1="205.9323" x2="365" y2="205.9323" gradientTransform="matrix(1 0 0 -1 0 395.7323)">
						<stop  offset="0" style="stop-color:#FFFFFF"/>
						<stop  offset="0.4028" style="stop-color:#E3E7F5"/>
						<stop  offset="0.9897" style="stop-color:#B3BFE3"/>
					</linearGradient>
					<path style="fill:url(#SVGID_00000013915201461170222320000002633107852790256271_);" d="M352.6,135
						c-4.9-4.5-45.8-5.1-74.1-6.3c-28.3-1.1-102.1-51.5-129-51.5s-43.3,0-43.3,0l-2.1,90.5h-1l0.5,22.1l-0.5,22.1h1l2.1,90.5
						c0,0,16.4,0,43.3,0s100.7-50.4,129-51.5s69.2-1.7,74.1-6.3c6.8,0,12.4-24.6,12.4-54.9S359.4,135,352.6,135z"/>
					<g>
						
							<linearGradient id="SVGID_00000065033739655603089770000010636272086979981203_" gradientUnits="userSpaceOnUse" x1="335.25" y1="145.8323" x2="335.25" y2="266.0323" gradientTransform="matrix(1 0 0 -1 0 395.7323)">
							<stop  offset="0" style="stop-color:#008BD2"/>
							<stop  offset="0.1514" style="stop-color:#088FD4"/>
							<stop  offset="0.3848" style="stop-color:#1D9BDA"/>
							<stop  offset="0.6712" style="stop-color:#41AEE4"/>
							<stop  offset="0.9969" style="stop-color:#71C8F2"/>
							<stop  offset="1" style="stop-color:#72C8F2"/>
						</linearGradient>
						<path style="fill:url(#SVGID_00000065033739655603089770000010636272086979981203_);" d="M352.6,135
							c-3.5-3.2-24.9-4.4-47.1-5.3c1.5,0.4,2.6,0.9,3.2,1.5c7.3,0,13.2,26.3,13.2,58.6c0,32.4-5.9,58.6-13.2,58.6
							c-0.6,0.6-1.7,1.1-3.2,1.5c22.2-0.8,43.6-2.1,47.1-5.3c6.8,0,12.4-24.6,12.4-54.9S359.4,135,352.6,135z"/>
					</g>
					
						<linearGradient id="SVGID_00000178889734603053032680000015440435061234232209_" gradientUnits="userSpaceOnUse" x1="140.1504" y1="93.4323" x2="140.1504" y2="318.6323" gradientTransform="matrix(1 0 0 -1 0 395.7323)">
						<stop  offset="0" style="stop-color:#008BD2"/>
						<stop  offset="0.1514" style="stop-color:#088FD4"/>
						<stop  offset="0.3848" style="stop-color:#1D9BDA"/>
						<stop  offset="0.6712" style="stop-color:#41AEE4"/>
						<stop  offset="0.9969" style="stop-color:#71C8F2"/>
						<stop  offset="1" style="stop-color:#72C8F2"/>
					</linearGradient>
					<path style="fill:url(#SVGID_00000178889734603053032680000015440435061234232209_);" d="M154.1,77.6c-1.1-0.2-2.1-0.3-3-0.4
						c-0.6,0-1.1-0.1-1.7-0.1c-26.9,0-43.3,0-43.3,0l-2.1,90.5h-1l0.5,22.1l-0.5,22.1h1l2.1,90.5c0,0,16.4,0,43.3,0
						c0.5,0,1.1,0,1.7-0.1c1-0.1,2-0.2,3-0.4c13-4.9,23.2-53.3,23.2-112.2C177.4,130.9,167.1,82.6,154.1,77.6z"/>
					
						<linearGradient id="SVGID_00000144320162496983296140000006823757222115198358_" gradientUnits="userSpaceOnUse" x1="80.8" y1="205.9323" x2="131.6" y2="205.9323" gradientTransform="matrix(1 0 0 -1 0 395.7323)">
						<stop  offset="0" style="stop-color:#004A9B"/>
						<stop  offset="0.1831" style="stop-color:#073B86"/>
						<stop  offset="0.5305" style="stop-color:#132262"/>
						<stop  offset="0.8153" style="stop-color:#1A134D"/>
						<stop  offset="1" style="stop-color:#1D0D45"/>
					</linearGradient>
					<path style="fill:url(#SVGID_00000144320162496983296140000006823757222115198358_);" d="M131.6,189.8
						c0,62.2-11.4,112.6-25.4,112.6S80.8,252,80.8,189.8S92.2,77.2,106.2,77.2C120.2,77.2,131.6,127.6,131.6,189.8z"/>
					<path class="st10" d="M131.3,172.9h-45c-1.8,0-3.6,0.3-5.2,0.8c-6.8,2.2-11.7,8.6-11.7,16.1s4.9,13.9,11.7,16.1
						c1.6,0.5,3.4,0.8,5.2,0.8h45c0.2-5.5,0.3-11.2,0.3-17C131.6,184.1,131.5,178.4,131.3,172.9z"/>
					
						<linearGradient id="SVGID_00000090978051170487943890000018021914757945910148_" gradientUnits="userSpaceOnUse" x1="208.3" y1="259.6212" x2="208.3" y2="310.8323" gradientTransform="matrix(1 0 0 -1 0 395.7323)">
						<stop  offset="0" style="stop-color:#EBEBEB"/>
						<stop  offset="0.1768" style="stop-color:#F4F4F4"/>
						<stop  offset="0.4973" style="stop-color:#FCFCFC"/>
						<stop  offset="1" style="stop-color:#FFFFFF"/>
					</linearGradient>
					
						<path style="opacity:0.4;fill:url(#SVGID_00000090978051170487943890000018021914757945910148_);enable-background:new    ;" d="
						M123.7,84.9c0,0,24.2,0,30.8,0s39.9,15.3,57.2,24.9s43.3,21.2,52.6,22.9s28.6,2.3,28.6,2.3s-23.5,2.5-39.3,0
						s-72.4-34.1-91-42.2C155,89.5,123.7,84.9,123.7,84.9z"/>
				</g>
				<g>
					
						<linearGradient id="SVGID_00000070077929296692149870000018218082724080792203_" gradientUnits="userSpaceOnUse" x1="327.0244" y1="208.3323" x2="360.033" y2="208.3323" gradientTransform="matrix(1 0 0 -1 0 395.7323)">
						<stop  offset="0" style="stop-color:#004A9B"/>
						<stop  offset="0.1831" style="stop-color:#073B86"/>
						<stop  offset="0.5305" style="stop-color:#132262"/>
						<stop  offset="0.8153" style="stop-color:#1A134D"/>
						<stop  offset="1" style="stop-color:#1D0D45"/>
					</linearGradient>
					<path style="fill:url(#SVGID_00000070077929296692149870000018218082724080792203_);" d="M360,187.4c0,1.4-1.1,2.5-2.5,2.5
						h-28.1c-1.4,0-2.5-1.1-2.5-2.5l0,0c0-1.4,1.1-2.5,2.5-2.5h28.1C358.9,184.9,360,186,360,187.4L360,187.4z"/>
					<g>
						
							<linearGradient id="SVGID_00000121274130209669594230000001729586096882364039_" gradientUnits="userSpaceOnUse" x1="326.5" y1="218.2323" x2="359.5" y2="218.2323" gradientTransform="matrix(1 0 0 -1 0 395.7323)">
							<stop  offset="0" style="stop-color:#004A9B"/>
							<stop  offset="0.1831" style="stop-color:#073B86"/>
							<stop  offset="0.5305" style="stop-color:#132262"/>
							<stop  offset="0.8153" style="stop-color:#1A134D"/>
							<stop  offset="1" style="stop-color:#1D0D45"/>
						</linearGradient>
						<path style="fill:url(#SVGID_00000121274130209669594230000001729586096882364039_);" d="M359.5,177.5c0,1.4-1.1,2.5-2.5,2.5
							h-28c-1.4,0-2.5-1.1-2.5-2.5l0,0c0-1.4,1.1-2.5,2.5-2.5h28.1C358.4,175,359.5,176.1,359.5,177.5L359.5,177.5z"/>
						
							<linearGradient id="SVGID_00000090980592277720572990000002416828401992006071_" gradientUnits="userSpaceOnUse" x1="325.8924" y1="228.1323" x2="358.9023" y2="228.1323" gradientTransform="matrix(1 0 0 -1 0 395.7323)">
							<stop  offset="0" style="stop-color:#004A9B"/>
							<stop  offset="0.1831" style="stop-color:#073B86"/>
							<stop  offset="0.5305" style="stop-color:#132262"/>
							<stop  offset="0.8153" style="stop-color:#1A134D"/>
							<stop  offset="1" style="stop-color:#1D0D45"/>
						</linearGradient>
						<path style="fill:url(#SVGID_00000090980592277720572990000002416828401992006071_);" d="M358.9,167.6c0,1.4-1.1,2.5-2.5,2.5
							h-28.1c-1.4,0-2.5-1.1-2.5-2.5l0,0c0-1.4,1.1-2.5,2.5-2.5h28.1C357.8,165.1,358.9,166.2,358.9,167.6L358.9,167.6z"/>
					</g>
					<g>
						
							<linearGradient id="SVGID_00000084497962928431278180000007212730137341243571_" gradientUnits="userSpaceOnUse" x1="326.5" y1="198.2323" x2="359.5" y2="198.2323" gradientTransform="matrix(1 0 0 -1 0 395.7323)">
							<stop  offset="0" style="stop-color:#004A9B"/>
							<stop  offset="0.1831" style="stop-color:#073B86"/>
							<stop  offset="0.5305" style="stop-color:#132262"/>
							<stop  offset="0.8153" style="stop-color:#1A134D"/>
							<stop  offset="1" style="stop-color:#1D0D45"/>
						</linearGradient>
						<path style="fill:url(#SVGID_00000084497962928431278180000007212730137341243571_);" d="M359.5,197.5c0-1.4-1.1-2.5-2.5-2.5
							h-28c-1.4,0-2.5,1.1-2.5,2.5l0,0c0,1.4,1.1,2.5,2.5,2.5h28.1C358.4,199.9,359.5,198.8,359.5,197.5L359.5,197.5z"/>
						
							<linearGradient id="SVGID_00000036213202071749451070000013382707711884316600_" gradientUnits="userSpaceOnUse" x1="325.8924" y1="188.3323" x2="358.9023" y2="188.3323" gradientTransform="matrix(1 0 0 -1 0 395.7323)">
							<stop  offset="0" style="stop-color:#004A9B"/>
							<stop  offset="0.1831" style="stop-color:#073B86"/>
							<stop  offset="0.5305" style="stop-color:#132262"/>
							<stop  offset="0.8153" style="stop-color:#1A134D"/>
							<stop  offset="1" style="stop-color:#1D0D45"/>
						</linearGradient>
						<path style="fill:url(#SVGID_00000036213202071749451070000013382707711884316600_);" d="M358.9,207.4c0-1.4-1.1-2.5-2.5-2.5
							h-28.1c-1.4,0-2.5,1.1-2.5,2.5l0,0c0,1.4,1.1,2.5,2.5,2.5h28.1C357.8,209.8,358.9,208.7,358.9,207.4L358.9,207.4z"/>
					</g>
				</g>
			</g>
			<g>
				<g>
					<path class="st17" d="M322.1,25.6c-0.2,3.3-2.9,5.8-5.9,5.6s-5.3-3.1-5-6.4c0.2-3.3,2.9-5.8,5.9-5.6
						C320.1,19.4,322.4,22.2,322.1,25.6z"/>
					<path class="st10" d="M321.6,29.4c-1.9,2.7-4.2,1.9-7.2,1.7c-3-0.2-4.6,1.6-4.4-1.7c0.2-3.3-0.2-7.3,2.8-7.3
						C317.2,22.1,324,26,321.6,29.4z"/>
					<polygon class="st18" points="311.7,60.6 312.1,55.2 304.6,55.3 304.1,60 					"/>
					<path class="st19" d="M320,45.3c0,0-1.2,12.8-11.9,11.9c-7-0.6-9-8.7-9-8.7s-2.7-0.6-2.8-3.9c0-3.3,1.3-4.3,2.1-3.1
						c-0.1-2.8,1.9-8,1.9-8s14.7-0.2,16.7-0.2C319,33.4,320,45.3,320,45.3z"/>
					<path class="st19" d="M319.1,46.2c0,0,0.5-1.9,1.8-1.9s1.6,1.8,0.6,3.8c-0.9,2-2.8,2.4-3,2C318.3,49.6,319.1,46.2,319.1,46.2z"
						/>
					<path class="st20" d="M305.6,33.9c0,0,6.2,1.2,8.3,0.4c2-0.8,3.8,1.6,4.2,2.5c0.4,0.8-1.1,3.6,0.2,4.4c1.4,0.8,0.7,4.3,0.5,6
						c0.5-2.8,2.3-4.2,3.1-1.9c2.7-10,2.1-17.3-6.2-20.5c-8.3-3.2-16.2-0.4-18.3,4.8c-1.8,4.2-2.6,12.1-1,14.1c0,0,0.2-1.3,0.4-1.8
						c0.4-1,1.5-0.1,1.7,1.1c0.2,1.1,0.4,2.7,0.4,2.7s0.3-3.7,0.6-4.6c0.3-0.9,2.3-3.1,2.1-4.3C301.2,35.7,303.7,32.7,305.6,33.9z"
						/>
				</g>
				<g>
					<path class="st18" d="M284.8,77.1c0,0-3.6,10.4-4.7,15s8.2,18.5,8.2,18.5l2.2-6.7l-3-10l5.4-15.1L284.8,77.1z"/>
					<path class="st18" d="M332.3,80.5c0,0,2,10.8,2.5,15.6c0.5,4.7-10.7,17.2-10.7,17.2l-1.2-6.9l4.4-9.5l-3.2-15.7L332.3,80.5z"/>
					<g>
						<path class="st21" d="M315.3,132.2c0,0,2.4-2.2,7.8-0.8c7,1.9,16.3,0.2,15,7.5c-1.1,3.7-7,3.4-10.5,3.1
							c-6.6-0.5-12.8-2.9-13.6-4.7C313.1,135.5,315.3,132.2,315.3,132.2z"/>
						<path class="st22" d="M323.1,131.4c-5.4-1.4-7.8,0.8-7.8,0.8s-0.1,0.1-0.2,0.3c0.9-0.6,3.3-1.5,7.3-0.5c7,1.9,16.3,0.2,15,7.5
							c-0.1,0.5-0.4,0.9-0.7,1.3c0.6-0.5,1.1-1.1,1.4-1.9C339.4,131.6,330.1,133.3,323.1,131.4z"/>
						<path class="st23" d="M317.5,132.5c0,0-2-0.4-4.5-1.2l-0.2,2.9l-1.6-0.1l-0.1,1.3l-1.4-0.1l-0.1,1.1c3.1,0.5,5.6,1.1,7.2,2
							c2.4,1.3,10.1,1.3,10.7-1.6C328.1,133.8,322.8,131,317.5,132.5z"/>
					</g>
					<path class="st21" d="M302.3,136.1c0,0-2.2-1.4-7.6-0.3c-7.1,1.5-16.3-1.5-15.5,5.9c0.9,3.7,6.7,4.5,10.2,4.4
						c6.6-0.2,13.1-3.1,14-4.8C304.3,139.5,302.3,136.1,302.3,136.1z"/>
					<path class="st22" d="M280.2,142.5c-0.9-7.3,8.4-4.3,15.5-5.9c3.7-0.8,5.9-0.4,6.9,0c-0.2-0.3-0.3-0.5-0.3-0.5
						s-2.2-1.4-7.6-0.3c-7.1,1.5-16.3-1.5-15.5,5.9c0.3,1.2,1,2,2,2.7C280.8,143.8,280.4,143.2,280.2,142.5z"/>
					<path class="st24" d="M270.4,115c0,0,9.4-0.9,13.6-0.9c4.1,0,40.8,0.9,40.8,0.9s17.2-4.1,22.9-3.9c-15.9,14.1-30.9,24-40,21
						C298.5,129,270.4,115,270.4,115z"/>
					<path class="st10" d="M313.1,60.9c0,0,10.8,4.6,14.5,8c3.8,3.5,6.8,16.7,6.9,18.9c-4.5,0-10.8,0.5-10.8,0.5s-0.1,5-1.4,9.5
						s-29.5,0.6-29.5,0.6L292.7,86l-11.5-2.5c0,0,4.4-12.9,7.7-16.3c2.1-2.2,13.8-6.6,13.8-6.6l0.6-3.2L313,58L313.1,60.9z"/>
					
						<rect x="291.7" y="80.3" transform="matrix(7.110992e-02 -0.9975 0.9975 7.110992e-02 181.1212 402.7815)" class="st25" width="30.3" height="47.7"/>
					<path class="st18" d="M319.1,132.8c0,0-13.7-2.6-17.8-6.6c-4.1-4-21.6-13.3-31.1-12.1c-9.4,1.2-11.2,7.5-1.1,15.2
						c7.4,4.8,25.9,4.5,30.3,4.8s13.5,3,13.5,3L319.1,132.8z"/>
					<path class="st26" d="M282.3,116c-4.4-1.5-11.7-3.4-15-2.9c-9.4,1.2-8.4,8.4,1.8,16.1c0.8,0.5,1.8,1,2.9,1.4
						C272.8,124.2,275,118.2,282.3,116z"/>
					<path class="st18" d="M299.4,136.9c0,0,9.2-3.6,12-7.4c2.8-3.8,12.7-13.3,23.3-15.3c10.6-2.1,16.5-5,19.4-2.1
						s-2.3,12.9-11.8,17.4s-24,6.8-29.5,8.4c-5.5,1.6-9.6,3.1-11.7,4.8s-9.7,2.9-10.8,0.2C289.2,140,294,136.3,299.4,136.9z"/>
					<path class="st26" d="M354.1,112c-2.9-2.9-8.8,0-19.4,2.1c-0.9,0.2-1.9,0.4-2.8,0.7c5.9,2.4,9.7,8.2,10.4,14.6l0,0
						C351.9,124.9,357,114.9,354.1,112z"/>
				</g>
			</g>
			<g>
				<g>
					<g>
						<path class="st27" d="M405.2,381.6c-10.6-19.4-12.1-50.6-12.1-50.8l-5.1,0.3c0.1,1.1,1.4,30.6,11.4,50.6h5.8V381.6z"/>
					</g>
					<g>
						<path class="st28" d="M425.8,374.9c-10.8-14.8-15.5-40.3-15.6-40.6l-4.9,1.5c0.2,1.1,4.2,23,13.8,39.1H425.8z"/>
					</g>
					<g>
						<path class="st28" d="M361.2,374.9c8-16.1,9-41.1,9-42.2l-5.1-0.3c0,0.3-1.1,28.1-10.2,42.5H361.2z"/>
					</g>
					<g>
						<path class="st29" d="M361.6,246.8c0,0-3.4,56.8,17.7,80.1c-15.5,2.9-42.7,3.9-42.7,3.9s-26.7-44.3-20.1-81.5
							C329.2,241.6,361.6,246.8,361.6,246.8z"/>
					</g>
					<path class="st30" d="M318.9,252.2c10.6-6.5,34.9-3.9,42.6-2.9c0.1-1.6,0.1-2.5,0.1-2.5s-32.4-5.2-45.1,2.6
						c-6.6,37.2,20.1,81.5,20.1,81.5s0.3,0,0.7,0C331.7,320.5,313.3,283.9,318.9,252.2z"/>
					<g>
						<path class="st27" d="M333.2,330c0.2,0.4,0.5,0.8,0.7,1.3c-8,23.3-18,45.5-20.9,50.4h5.9c4.2-7.3,13.1-28.7,20.2-49.9l0.3-0.8
							L333.2,330z"/>
						<path class="st30" d="M339.5,330.6l-0.6-1c-27.7-46.4-17.7-78.2-17.5-78.6l0,0l-2.2-0.7l-2.6-0.9
							c-0.5,1.3-10.7,33.2,16.7,80.5l6.2,1V330.6z"/>
					</g>
					<g>
						<rect x="330.3" y="327" class="st31" width="81.2" height="7.6"/>
					</g>
				</g>
				<g>
					<g>
						<path class="st32" d="M371.1,284.2c0,0,7,8,21.4,10.6c4.1,4.3-3.9,6.1-3.9,6.1S367,298.1,371.1,284.2z"/>
					</g>
					<g>
						<path class="st33" d="M441.2,365.6c0,0,1.3,5.2,1.3,7.6s-3.1,6.6,5.2,6.5c8.3-0.1,24.5,0,28.6,0s2.5-8.7-5.2-8
							s-21.1-4.1-24.5-9.2C443.2,362.6,441.2,365.6,441.2,365.6z"/>
					</g>
					<g>
						<path class="st25" d="M441.9,377c0.1,1.5,1.3,2.7,5.8,2.6c8.3-0.1,24.5,0,28.6,0c1.5,0,2.2-1.2,2.2-2.6H441.9z"/>
					</g>
					<g>
						<path class="st34" d="M418.5,302.8c0,0,13-0.1,17.9,2.1c4.9,2.3,3.4,8.2-4.4,7.5c-7.7-0.7-13.5-1.1-13.5-1.1V302.8z"/>
					</g>
					<g>
						<path class="st35" d="M418.2,303.1c0,0,13-0.1,17.9,2.1c4.9,2.3,3.4,8.2-4.4,7.5c-7.7-0.7-13.5-1.1-13.5-1.1V303.1z"/>
					</g>
					<g>
						<g>
							<path class="st19" d="M373,230.4c0,0-0.3,18.5-9.3,22.6c-1.6,0.5-4.8-1.3-4.8-1.3s-1.3,0.2-0.2,2.8c0.4,0.9,3,3.3,3,3.3
								s-13.2,2.8-19.4-3.8c4.4-2.3,7.8-12.9,7.8-12.9s-3.1-1.7-3.5-4s0.8-4.3,2.5-3.7c2.7,1,3,4.2,3,4.2s1.8-8,4.3-10.9
								C358.8,223.9,369.7,223.4,373,230.4z"/>
						</g>
					</g>
					<g>
						<path class="st36" d="M343.3,253.1c0,0,9.9,5.8,18.5,4.1c8.2,8.5,10.1,18.6,10.1,25.3c0,6.8,12.7,18.4,12.7,18.4
							s-15,0-20.9,3.6s-11.4,9.5-12.9,18.2c-6.5-3-9.3-16.7-9.7-25.1c-0.4-8.5-3.6-17.5-6.1-25.4
							C332.5,264.4,330.8,257.8,343.3,253.1z"/>
					</g>
					<g>
						<path class="st37" d="M400.9,301.3c0,0,12.4-0.7,17.9,0.2c0.4,0.3,0.8,0.7,1.1,1c3.3,3.5,1.7,7.9,1.3,9.3
							c-3.4,3.5-6.2,3.6-11,5C405.3,318.2,400.9,301.3,400.9,301.3z"/>
					</g>
					<g>
						<path class="st38" d="M379.4,328c0,0,25.6,2.1,34.9,1.5c0.7,9,0.6,11.2,6.3,16.1c5.7,4.9,18.7,22.6,18.7,22.6s8.4-4,9.4-5.3
							c-7.5-12-20.7-37.6-24.7-42.2s-4.8-6.3-17.8-6C393.1,314.9,379.4,328,379.4,328z"/>
					</g>
					<g>
						<path class="st39" d="M350.1,315.4c0,0-1.1,12.1,16.6,15.1s40.9-10.3,44.9-15.1c3.9-4.8,10.1-14.1-10-14.1s-34.7-3.1-41.2,0.8
							C353.8,306,350.1,315.4,350.1,315.4z"/>
					</g>
					<g>
						<path class="st19" d="M374.4,291.2c0,0,4.3-0.1,6.4-1.5s4-2.2,5.8,0s2.9,8.5,2.9,8.5h-6.4l-1.8-1.4l-7.2-0.1L374.4,291.2z"/>
					</g>
					<g>
						<g>
							<polygon class="st40" points="387.5,298 399,258.4 433.3,258.7 434.4,259.2 418.5,298 							"/>
						</g>
						<g>
							<polygon class="st41" points="388.7,298 400.1,259.2 434.4,259.2 419.6,298 							"/>
						</g>
						<g>
							<g>
								<rect x="361.6" y="298" class="st42" width="58" height="3.3"/>
							</g>
							<g>
								<rect x="361.6" y="298" class="st43" width="27" height="3.3"/>
							</g>
						</g>
					</g>
					<g>
						<path class="st44" d="M331.2,265.2c0.6-3.5,3-8.9,8.1-10c5.1-1,8.2,6.7,6.8,14c-1.4,7.3,1.7,14.8,3.1,17.6
							c1.4,2.8,15.9,1.7,26.3,3.8c0.1,4.2,0,6.7,0,6.7s-20.4,3.9-30.8,1.4s-12.4-9.7-13.5-19.9C330.5,272.6,331,266.7,331.2,265.2z"
							/>
					</g>
					<g>
						<path class="st45" d="M358.9,230.2c0,0,0.3,2.3-1.5,2.9c-1.8,0.6-4.4,4.5-4.6,6.3c-0.8-0.2-1.3-0.4-1.3-0.4s0.4-3-0.2-3.7
							s-1-1.2-1.4-1.4c-0.1-1.8,0.5-6.4,0.5-6.4S358.5,227.7,358.9,230.2z"/>
					</g>
					<g>
						<path class="st46" d="M378.4,232.3c2.4-1.3,2.3-5.3-0.9-6.2c0.1-1,0.8-2.3,0.3-3.6c-0.7-1.9-2.2-2.2-3.8-2.5
							c-1.7-0.3-0.2-2.1-2.8-3.1c-1.5-0.6-1.8,0.4-2.8,0.6c-0.7,0.1-1.5-0.7-2.1-1c-0.7-0.3-1.1-0.7-1.9-0.7c-0.7,0-1.5,0.1-2.1,0.6
							c-0.6,0.4-0.6,1.2-1.5,0.8c-0.5-0.2-0.9-1.1-1.4-1.4c-0.6-0.4-1.4-0.8-2.1-0.7c-2.5,0.4-2,2.1-3,2c-2.1-0.3-3.7-0.4-4.2,2.2
							c-0.2,1.2-3,0.6-2.5,3.4c0.2,1.3,1.8,1.2,1.6,1.8c-0.1,0.2-2.2,1.3-1.2,3.3c0.9,1.9,3.4,1.8,4.5,1c-0.2,1.5,1.1,2,2.2,2.1
							c1.5,0.1,2.3-0.2,3.4-1.3c1.3,2.6,3.1,3.1,5.4,1.7c0.1,0.9,0.9,2.1,1.7,2.6c3.4,1.8,5.9,0.4,5.9,0.4c0.4,1.8,1.6,2.7,3.2,2.7
							c1.1,0,2.2-0.3,2-1.7c0.8,0.4,3,0.5,3.5-0.6C380,233.7,379.3,232.7,378.4,232.3z"/>
					</g>
				</g>
			</g>
			<g>
				<g>
					<g>
						<rect x="198.8" y="319.7" class="st47" width="6.8" height="48.5"/>
					</g>
					<g>
						<polygon class="st47" points="245.2,372.4 238.4,372.4 221.9,323.8 228.7,323.8 						"/>
					</g>
					<g>
						<polygon class="st47" points="157.5,372.4 164.2,372.4 180.7,323.8 174,323.8 						"/>
					</g>
					<rect x="140.4" y="173.4" class="st48" width="123.4" height="151.9"/>
				</g>
				<g>
					<g>
						
							<linearGradient id="SVGID_00000144299895776058523770000000728917241790574230_" gradientUnits="userSpaceOnUse" x1="173.1213" y1="120.0644" x2="240.9977" y2="144.541" gradientTransform="matrix(1 0 0 -1 0 395.7323)">
							<stop  offset="0" style="stop-color:#004A9B"/>
							<stop  offset="0.1831" style="stop-color:#073B86"/>
							<stop  offset="0.5305" style="stop-color:#132262"/>
							<stop  offset="0.8153" style="stop-color:#1A134D"/>
							<stop  offset="1" style="stop-color:#1D0D45"/>
						</linearGradient>
						
							<rect x="163.9" y="259.8" style="fill:url(#SVGID_00000144299895776058523770000000728917241790574230_);" width="10.5" height="34.6"/>
						
							<linearGradient id="SVGID_00000152225662617231028580000005123932949704746666_" gradientUnits="userSpaceOnUse" x1="173.6318" y1="118.6484" x2="241.5082" y2="143.1251" gradientTransform="matrix(1 0 0 -1 0 395.7323)">
							<stop  offset="0" style="stop-color:#004A9B"/>
							<stop  offset="0.1831" style="stop-color:#073B86"/>
							<stop  offset="0.5305" style="stop-color:#132262"/>
							<stop  offset="0.8153" style="stop-color:#1A134D"/>
							<stop  offset="1" style="stop-color:#1D0D45"/>
						</linearGradient>
						
							<rect x="180.4" y="251.1" style="fill:url(#SVGID_00000152225662617231028580000005123932949704746666_);" width="10.5" height="43.3"/>
						
							<linearGradient id="SVGID_00000091015408085648960020000012709215037308476847_" gradientUnits="userSpaceOnUse" x1="174.1526" y1="117.2043" x2="242.029" y2="141.681" gradientTransform="matrix(1 0 0 -1 0 395.7323)">
							<stop  offset="0" style="stop-color:#004A9B"/>
							<stop  offset="0.1831" style="stop-color:#073B86"/>
							<stop  offset="0.5305" style="stop-color:#132262"/>
							<stop  offset="0.8153" style="stop-color:#1A134D"/>
							<stop  offset="1" style="stop-color:#1D0D45"/>
						</linearGradient>
						
							<rect x="196.9" y="242.5" style="fill:url(#SVGID_00000091015408085648960020000012709215037308476847_);" width="10.4" height="51.9"/>
						
							<linearGradient id="SVGID_00000079461028561140350020000017882697158597646000_" gradientUnits="userSpaceOnUse" x1="174.7168" y1="115.6397" x2="242.5932" y2="140.1164" gradientTransform="matrix(1 0 0 -1 0 395.7323)">
							<stop  offset="0" style="stop-color:#004A9B"/>
							<stop  offset="0.1831" style="stop-color:#073B86"/>
							<stop  offset="0.5305" style="stop-color:#132262"/>
							<stop  offset="0.8153" style="stop-color:#1A134D"/>
							<stop  offset="1" style="stop-color:#1D0D45"/>
						</linearGradient>
						
							<rect x="213.4" y="234.1" style="fill:url(#SVGID_00000079461028561140350020000017882697158597646000_);" width="10.5" height="60.3"/>
						
							<linearGradient id="SVGID_00000034779488699230212730000004306865033419661979_" gradientUnits="userSpaceOnUse" x1="174.7966" y1="115.4185" x2="242.673" y2="139.8951" gradientTransform="matrix(1 0 0 -1 0 395.7323)">
							<stop  offset="0" style="stop-color:#004A9B"/>
							<stop  offset="0.1831" style="stop-color:#073B86"/>
							<stop  offset="0.5305" style="stop-color:#132262"/>
							<stop  offset="0.8153" style="stop-color:#1A134D"/>
							<stop  offset="1" style="stop-color:#1D0D45"/>
						</linearGradient>
						
							<rect x="229.9" y="222.7" style="fill:url(#SVGID_00000034779488699230212730000004306865033419661979_);" width="10.5" height="71.7"/>
					</g>
					<g>
						<g>
							
								<linearGradient id="SVGID_00000000922449640361791130000005128429945398172345_" gradientUnits="userSpaceOnUse" x1="161.4662" y1="152.3852" x2="229.3425" y2="176.8618" gradientTransform="matrix(1 0 0 -1 0 395.7323)">
								<stop  offset="0" style="stop-color:#004A9B"/>
								<stop  offset="0.1831" style="stop-color:#073B86"/>
								<stop  offset="0.5305" style="stop-color:#132262"/>
								<stop  offset="0.8153" style="stop-color:#1A134D"/>
								<stop  offset="1" style="stop-color:#1D0D45"/>
							</linearGradient>
							<path style="fill:url(#SVGID_00000000922449640361791130000005128429945398172345_);" d="M234.2,204.6
								c-27.6,32.9-59,43.3-70.5,46.1v3.7c11.2-2.7,44.4-13,73.2-47.5L234.2,204.6z"/>
						</g>
						
							<linearGradient id="SVGID_00000063622252473469564830000005025802091830457742_" gradientUnits="userSpaceOnUse" x1="158.3441" y1="161.0429" x2="226.2205" y2="185.5195" gradientTransform="matrix(1 0 0 -1 0 395.7323)">
							<stop  offset="0" style="stop-color:#004A9B"/>
							<stop  offset="0.1831" style="stop-color:#073B86"/>
							<stop  offset="0.5305" style="stop-color:#132262"/>
							<stop  offset="0.8153" style="stop-color:#1A134D"/>
							<stop  offset="1" style="stop-color:#1D0D45"/>
						</linearGradient>
						<polygon style="fill:url(#SVGID_00000063622252473469564830000005025802091830457742_);" points="227.4,202.5 240.4,199.7 
							238.7,213 						"/>
					</g>
				</g>
			</g>
			<g>
				<path class="st56" d="M262,193.8c0,0-0.6,6.7-3.5,12.7c-2.5,5.3,9.5-2.6,9.8-5.5C268.6,198,268,187.8,262,193.8z"/>
				<g>
					<path class="st19" d="M263.4,360.9c0,0,1.5,8.8,1.8,11.6c0.3,2.8-5,5.6-6.5,6.5c1.3,2.7,13.6-1.7,13.6-1.7l-2.3-16.4H263.4z"/>
					<g>
						<path class="st57" d="M271.9,375.3c0,0-5.7,2.7-7.7,3.3c-2.1,0.6-3-1.1-3-1.1s-8.6,2.3-10.4,2.4c-1.6,0.4-0.5,3,0.8,3.2
							c1.3,0.3,21.7-0.9,21.7-0.9S274.2,376.5,271.9,375.3z"/>
						<path class="st58" d="M251.6,381.7c1.2,0.1,19.8-0.9,21.8-1c0,0.9-0.1,1.5-0.1,1.5s-20.4,1.2-21.7,0.9
							c-0.8-0.2-1.5-1.2-1.6-2.1C250.3,381.4,250.8,381.7,251.6,381.7z"/>
					</g>
				</g>
				<g>
					<path class="st19" d="M286.5,359.1c0,0,2.8,8.5,3.5,11.2s-4.2,6.3-5.5,7.4c1.7,2.5,13.2-3.7,13.2-3.7l-4.7-15.9L286.5,359.1z"
						/>
					<g>
						<path class="st57" d="M297.1,372.1c0,0-5.2,3.5-7.2,4.4s-3.2-0.6-3.2-0.6s-6.5,4-9.9,3.8c-1.6,0.6-0.1,3,1.3,3.1
							c0.5,0,4.8,0.3,8.6-0.5c5.5-1.1,12.7-3.6,12.7-3.6S299.5,372.9,297.1,372.1z"/>
						<path class="st58" d="M276.4,380c0.3,0.7,1,1.3,1.7,1.3c0.5,0,4.8,0.3,8.6-0.5c5.2-1,11.9-3.3,12.6-3.5
							c0.1,0.8,0.1,1.4,0.1,1.4s-7.2,2.4-12.7,3.6c-3.9,0.8-8.1,0.5-8.6,0.5C276.9,382.7,275.6,380.9,276.4,380z"/>
					</g>
				</g>
				<path class="st59" d="M282.9,260.9c0,0,4,9.7,2.3,18s-7.1,32.2-6.7,36.1s8.9,15.2,10.3,24.2s6.5,26.6,6.5,26.6l-6,1.7
					c0,0-12.1-26.6-13.7-32.2s-7.1-17.3-8.3-22.7c-1.1-5.4-2.9-21.7-2.9-21.7s-3.6,23.1-3.8,24.1c0.2,4.1,3.7,8.4,5,13.7
					c1.3,5.4,5,36.7,5,36.7l-6,2.8c0,0-11.9-40.1-14-48.1c-2.1-7.9-0.8-14.9-1.1-21.1c-0.4-6.2-0.3-39.8-0.3-39.8
					S274.5,254.9,282.9,260.9z"/>
				<path class="st60" d="M267.1,200.4c0,0-9.9,6.5-13.9,17c0.4,0.3,2.4,1.1,2.4,1.1s-3,5.4-3,8.1c0,2.7,1.3,3.6,1.9,5.9
					c0.6,2.3-5.3,20.1-7.6,27.8c7.6,6.4,28.6,5,37.2,0.9c-7-6.1-7.7-18.7-7.6-23c0.2-5.7,9.2-14.9,9.2-14.9c1.1-0.1,4.4,3.5,4.4,3.5
					l8.3-5.7c-5.7-8-9.1-15-12.5-16.1C277.2,202.4,267.1,200.4,267.1,200.4z"/>
				<g>
					<path class="st19" d="M261.2,174.5c0,0-1.3,3.6-1.9,8.9c-0.2,1.4-1.9,4-1.9,5.4c0,0.3,1.5,0.4,1.5,0.6c0.1,2.9,0.6,5.5,2.1,7.2
						c0.9,0.9,5.4,0.5,5.4,0.5l-0.8,6.2c0,0,3.7,4.6,9.2,0.6c-0.1-5.1-0.6-12.6-0.6-12.6s3,0.1,3.7-1.7c0.7-1.9,0.2-6.2-1.8-6
						s-2.9,2.8-2.9,2.8s0.5-7.4-0.5-10.5C271.8,172.8,264.8,169.3,261.2,174.5z"/>
					<path class="st61" d="M267.4,179.9c-3.6,2-9.2,0.9-9.2,0.9s0-12.8,11.9-15.3c6.6-0.6,8.2,2.1,8.9,3.5c5.9-1.6,8.8,9.3,7.2,13.4
						c-1.6,4.2-2.4,6,2,15.8c2.5,16.3-22.8,9.2-21.8,8C271.8,199.6,267.3,180.1,267.4,179.9z"/>
				</g>
				<path class="st19" d="M297.6,221.7c0,0,4.5,8.5,6,10.7s-3.4,8.1-8,13s-10.8,10.5-11.2,11.4c-0.4,0.8-1,3.6-2.5,2.7
					s-3.4-1.8-4.4-0.7c-1.1,1.1-2.6,2.3-3.7,2.2c-1.1-0.1-1.2-0.6-0.9-0.7c0.3,0,4.2-3.6,5-3.6c-0.4-0.5-1.1-1-1.6-1.1
					s-5,3.2-6.5,1.8c0.1-0.5,0.7-0.9,0.7-0.9s-1.4,0.4-1.8-0.3c1.1-1.2,3.9-3.6,4.9-4c0.9-0.4,2.2-0.2,2.7,0
					c-0.2-0.8-0.8-1.3-1.4-1.4c-0.5,0-4.1,2.2-5.2,2.1c-1.1-0.1-1.6-0.7-1.3-0.9c0.2-0.2,4.2-2,5.2-2.5s2.4-1,3.7,0.7
					c1.2,1.7,3.8,2.5,4.7,2c0.9-0.5,14-18.1,14-18.1l-5-7.7L297.6,221.7z"/>
			</g>
			<g>
				<path class="st20" d="M150.7,212.8c0,0-4.6-5.9-19.1-0.7c-2.6-4.1-2.2-19.5-2.2-19.5l24.1-2.1L150.7,212.8z"/>
				<g>
					<g>
						<path class="st19" d="M110.6,366.5c0,0-3.6,6.2-5.3,6.9c1.6,2.3,9.6,1.8,9.6,1.8l0.4-6.7L110.6,366.5z"/>
						<polygon class="st19" points="154,366.5 154,372 148.4,372 148.4,366 						"/>
						<path class="st19" d="M127.1,280.3c0,0-5.4,40.4-7.8,47.9c-1.9,6-6.6,28-8.6,36.5c-0.5,2.1-1.3,3.7-1.3,3.7l5.7,1.1
							c0,0,3.3-14.6,7.6-20.2c4.3-5.6,6.7-15.5,6.9-20.4c1.5-5.8,11.2-34.9,11.2-35.6c0-0.3,0.3-0.9,0.7-1.5l-0.6-14.3
							C133.8,278.4,127.1,280.3,127.1,280.3z"/>
						<path class="st19" d="M156.2,327c-0.1-2,2.7-21.2,3.7-34.8l-15.3,0.9c0.5,7.7,1.9,29.9,2.2,33.9c0.4,4.8,0,8.7,0,14.6
							s1.6,25.6,1.6,25.6l5.7,0.6c0,0,3.3-23.7,3-29C156.7,333.6,156.4,330.2,156.2,327z"/>
						<path class="st62" d="M107.2,371.6c0,0,4.3,3,7.9,0.8c0.5,4.2,0.5,10.8,0.5,10.8H92.3c0,0-2.5-5.6,1.9-6.2s5.7,0.4,7.2-1.2
							C102.8,374.3,107.2,371.6,107.2,371.6z"/>
						<path class="st63" d="M101.3,375.9C101.3,375.9,101.4,375.9,101.3,375.9c1.5-1.6,5.8-4.3,5.8-4.3s0.4,0.3,1,0.6l-4.7,5.1
							L101.3,375.9z"/>
						<path class="st64" d="M115.5,379.7c0,2.1,0.1,3.6,0.1,3.6H92.3c0,0-0.8-1.9-0.7-3.6H115.5z"/>
						<path class="st62" d="M159.5,383.7h-13.2c0,0,0-3.2,0-4.8c0-1.6,2.1-7.9,2.1-8c1.2-0.1,5.7,0,5.7,0s2.6,4.3,3.7,5.4
							C158.9,377.3,159.8,379.9,159.5,383.7z"/>
						<path class="st63" d="M148.7,376.5l0.6-5.7c1.1,0,2.8,0,3.8,0l1.5,5.6L148.7,376.5z"/>
						<path class="st64" d="M159.3,379.5c0.2,1.2,0.3,2.6,0.2,4.2h-13.2c0,0,0-2.5,0-4.2H159.3z"/>
					</g>
					<g>
						<g>
							<path class="st65" d="M144.5,201.3c0,0-0.5,5.6-0.4,6.7c0.1,1.1,4,1.8,4,1.8s-2.9,11-9.8,11.2c-6.3-2.5-7.1-10.1-6.6-11.5
								c1.1,0,3.8-0.8,4.3-1.3s0.1-5.9,0.1-5.9L144.5,201.3z"/>
							<g>
								<path class="st38" d="M165.6,237.3l-10.4-9.4c0,0,1.5,5.6-1.2,12.1c-2,4.8,0.7,15.7,0.7,15.7s-28.4,0.3-28.1-2.5
									c0.3-2.1,0.1-7.4-0.5-10.7c-0.2-1.1-0.4-1.9-0.6-2.3c-0.9-0.8-1.4-2.1-1.7-3.6c-0.9-3.6-0.5-8.1-0.5-8.1l0.2,1l-2.6,6.9
									l-4.1-6.8l-2.2,8.2c1.4-9.2,6.5-24.9,8.7-25.8c2.2-0.9,9.3-2.7,9.3-2.7s0.1,7.6,6.8,10.7c3.9-2.6,8.9-8.1,9.3-10.4
									c2.6,0.6,5.9,1.7,7.5,3.3s8.8,12.6,13.9,19.1C169.2,233.7,165.6,237.3,165.6,237.3z"/>
								<path class="st39" d="M132.9,209.3c0,0-2.7,13.2-2.4,17.5c6.5-0.3,16.5-0.6,16.5-0.6s0.4-14,2.2-16.6
									c1.6,0.1,2.6,0.7,2.6,0.7s-2.7,8.7-1.8,16.1c1.1,0.2,2,2.6,1.9,6.3s3.5,21.3,7.6,29.4c4.8,9.4,6.8,78.6,4.2,103.7
									c-10,5.1-57.5,2.5-57.5,2.5s14.7-76.4,16.5-88.6c1.3-8.8,1.4-12.2,2.9-21.4c0.5-3.3,1.3-10,1.5-13.2
									c0.1-3.1-0.4-11.1-0.8-13.3s-0.2-4.2,1-4.5c0.1-3.3,1.4-16.4,3.2-17.5C130.7,209.7,132.9,209.3,132.9,209.3z"/>
								<path class="st38" d="M170.4,247.7c-3,3.2-6.8,6.7-8.6,8.6c-2.4,0.2-2.3-3.7-2.3-3.7c2.4-2.9,8.9-11.8,8.9-11.8l-5.8-7.4
									l4.4-5c0,0,7.1,7.9,8.4,9.8C176.7,240.2,174.4,243.4,170.4,247.7z"/>
								<path class="st19" d="M161.8,256.3c-0.6,0.6-1,1.1-1.1,1.2c-0.4,0.7-0.9,3.1-2.2,2.4c-1.3-0.8-2.9-1.5-3.8-0.6
									c-0.9,0.9-2.2,2-3.2,1.9s-1-0.6-0.8-0.6s3.7-3.1,4.3-3.1c-0.4-0.4-1-0.9-1.4-0.9c-0.4-0.1-4.3,2.8-5.6,1.5
									c0.1-0.4,0.5-0.7,0.6-0.8c-0.2,0-1.2,0.2-1.5-0.3c1-1.1,3.4-3.1,4.2-3.4c0.8-0.4,1.9-0.2,2.3,0c-0.2-0.6-0.7-1.1-1.2-1.2
									c-0.5,0-3.5,1.9-4.5,1.8c-1-0.1-1.4-0.7-1.2-0.8s3.6-1.7,4.5-2.1c0.9-0.5,2.1-0.9,3.2,0.6c1.1,1.5,3.3,2.1,4.1,1.7
									c0.1-0.1,0.4-0.4,0.9-0.9C159.5,252.6,159.4,256.5,161.8,256.3z"/>
							</g>
							<g>
								<g>
									<path class="st19" d="M150.5,190.7c0,0-0.4,14.7-10.7,14.5c-6.7-0.2-9-10-9-10s-2.6-0.4-2.8-3.8c-0.2-3.3,1.1-4.4,1.9-3.2
										c-0.2-2.8,0.8-5.2,0.8-5.2s14.6-3.8,16.5-4C148.9,178.8,150.5,190.7,150.5,190.7z"/>
									<path class="st66" d="M147.5,183.6c0,0-0.2,8.8,1,13.1s-2,20.9-4.5,21.4c4.9,0.7,12.3-13.2,11.2-25.2
										c-1.2-12-4.5-17.8-7-16.9c-2.4-3.7-14.7-5.1-18.7,0.8c-6.7,9.8-6,39.5,6.4,40.7c-1.7-1.3-4.4-15.4-4-17.6
										c0.5-5.2-0.3-11.5-0.3-11.5s6.3-2.3,10.3-4.6c-2.1,1.8-4.4,3.5-4.4,3.5S144.5,187.6,147.5,183.6z"/>
								</g>
							</g>
						</g>
					</g>
				</g>
			</g>
			<polygon class="st2" points="161,250.8 125.5,250.8 119.8,203 155.3,203 			"/>
			<g>
				<path class="st38" d="M126.1,242.5c-5.4-0.1-11.3-0.8-11.8-2.4c-0.3-1,1-5.7,2.4-10.4l3.5,2.2l2.6-3l0.1,1.3l-2.2,6.2
					c0,0,1.1,0.1,2.9,0.2c0.3,1.5,0.9,2.8,1.7,3.6C125.8,240.5,126,241.4,126.1,242.5z"/>
				<path class="st38" d="M143.2,237.4v4.2c-2.8,0.2-7.5,0.7-11.5,0.9c-1.6,0.1-3.6,0.1-5.6,0c-0.2-1.1-0.4-1.9-0.6-2.3
					c-0.9-0.8-1.4-2.1-1.7-3.6C129.2,236.9,140.4,237.4,143.2,237.4z"/>
				<path class="st19" d="M142.2,237.4c0,0,1.8-0.1,3.1-1.3c1.4-1.2,2.5-1.5,3.1-1.8c0.6-0.4,1.2-0.6,1.2,0c0.1,0.6-0.6,1.2-1.1,1.4
					s-0.8,0.9-0.8,0.9s3.6,0.1,4.2-0.1c0.7-0.2,1.6-0.7,2.2-0.8c0.6,0,0.2,0.7,0,0.8s-1.6,0.7-2.1,1c0.7-0.1,1.8-0.7,2.2-0.9
					s1.2-0.2,1,0.4c-0.2,0.6-1.5,1.1-1.5,1.1s0.8-0.2,1.1-0.1c0.3,0,0.6,0.7-0.6,1.2c-0.7,0.3-1.8,0.8-1.8,0.8s1.5-0.4,1.9-0.5
					s0.8,0.6,0,1c-1.3,0.6-2.6,1.6-5.2,1.6c-2.6,0.1-5.7-0.5-7.2-0.4C141.2,240,142.2,237.4,142.2,237.4z"/>
			</g>
			<path class="st67" d="M240.5,74.4c0.2-1.6,0.3-3.1,0.3-4.7s-0.1-3.2-0.3-4.7c-5.7-1.6-12.3-3-13-5.2c-0.8-2.3,3.6-7.3,7.4-12
				c-1.6-2.7-3.4-5.2-5.5-7.5c-5.6,2.1-11.6,4.8-13.6,3.3c-1.9-1.4-1.3-8-1-14c-2.8-1.3-5.7-2.3-8.8-2.9c-3.3,5-6.6,10.7-9.1,10.7
				s-5.9-5.7-9.1-10.7c-3.1,0.6-6,1.6-8.8,2.9c0.3,5.9,1,12.6-1,14s-8.1-1.2-13.6-3.3c-2.1,2.3-3.9,4.8-5.5,7.5
				c3.7,4.6,8.1,9.6,7.4,11.9c-0.7,2.3-7.2,3.7-13,5.2c-0.2,1.6-0.3,3.1-0.3,4.7s0.1,3.2,0.3,4.7c5.8,1.6,12.3,3,13,5.2
				c0.8,2.4-3.6,7.3-7.4,12c1.6,2.7,3.4,5.2,5.5,7.5c5.6-2.1,11.6-4.8,13.6-3.3c1.9,1.4,1.3,8,1,14c2.8,1.2,5.7,2.2,8.8,2.9
				c3.2-5,6.6-10.7,9.1-10.7s5.9,5.7,9.1,10.7c3.1-0.6,6-1.6,8.8-2.9c-0.3-5.9-1-12.6,1-14s8.1,1.2,13.6,3.3
				c2.1-2.3,3.9-4.8,5.5-7.5c-3.7-4.6-8.1-9.6-7.4-12C228.3,77.3,234.8,75.9,240.5,74.4z M196.9,91.3c-12,0-21.6-9.7-21.6-21.6
				s9.7-21.6,21.6-21.6c12,0,21.6,9.7,21.6,21.6S208.9,91.3,196.9,91.3z"/>
			<path class="st67" d="M161,38.6c0.1-1,0.2-2.1,0.2-3.2c0-1.1-0.1-2.1-0.2-3.2c-3.9-1-8.3-2-8.7-3.5c-0.5-1.6,2.4-4.9,5-8
				c-1.1-1.8-2.3-3.5-3.7-5c-3.7,1.4-7.8,3.2-9.2,2.2c-1.3-0.9-0.9-5.4-0.7-9.4c-1.9-0.8-3.9-1.5-5.9-1.9c-2.2,3.4-4.5,7.2-6.2,7.2
				s-4-3.9-6.2-7.2c-2.1,0.4-4,1.1-5.9,1.9c0.2,4,0.6,8.5-0.7,9.4c-1.3,1-5.4-0.8-9.2-2.2c-1.4,1.5-2.6,3.2-3.7,5.1
				c2.5,3.1,5.5,6.5,5,8s-4.9,2.5-8.7,3.5c-0.1,1-0.2,2.1-0.2,3.2c0,1.1,0.1,2.1,0.2,3.2c3.9,1,8.3,2,8.7,3.5c0.5,1.6-2.4,4.9-5,8
				c1.1,1.8,2.3,3.5,3.7,5.1c3.7-1.4,7.8-3.2,9.2-2.3c1.3,1,0.9,5.4,0.7,9.4c1.9,0.8,3.9,1.5,5.9,1.9c2.2-3.4,4.5-7.2,6.2-7.2
				s4,3.9,6.2,7.2c2.1-0.4,4.1-1.1,5.9-1.9c-0.2-4-0.6-8.5,0.7-9.4c1.3-1,5.4,0.8,9.2,2.3c1.4-1.5,2.6-3.2,3.7-5.1
				c-2.5-3.1-5.5-6.5-5-8C152.7,40.5,157.1,39.6,161,38.6z M131.6,49.9c-8,0-14.6-6.5-14.6-14.6c0-8,6.5-14.6,14.6-14.6
				c8,0,14.6,6.5,14.6,14.6C146.2,43.4,139.7,49.9,131.6,49.9z"/>
		</g>
	</g>
	<g>
		<g>
			<path class="st48" d="M424.7,181.7c-2.7-0.3-5.3-0.6-8-0.9c-4.1-0.5-7.1-3.7-7.3-7.8c0-0.4,0-0.9,0.1-1.3
				c0.6-5.3,1.3-10.7,1.9-16c0.5-4.2,3.6-7.1,7.8-7.4c0.5,0,1,0,1.4,0.1c5.3,0.6,10.6,1.3,16,1.9c4.7,0.6,7.8,4.4,7.3,9.1
				c-0.6,5.4-1.2,10.8-1.9,16.3c-0.6,4.7-4.5,7.7-9.2,7.1C430,182.3,427.4,182,424.7,181.7z M440.6,167.1c0.3-2.7,0.7-5.4,1-8.1
				c0.4-3.3-1.8-6.1-5.1-6.5c-5.4-0.7-10.9-1.3-16.3-1.9c-3.3-0.4-6.1,1.9-6.5,5.2c-0.6,5.4-1.3,10.8-1.9,16.2
				c-0.1,1.1,0,2.1,0.5,3.1c0.9,2,2.5,3.1,4.7,3.4c5.4,0.7,10.9,1.3,16.3,1.9c0.4,0,0.7,0.1,1.1,0c2.9-0.2,5-2.3,5.4-5.2
				C440,172.5,440.3,169.8,440.6,167.1z"/>
			<path class="st48" d="M425.6,174.1c-4.8-0.6-8.2-4.9-7.6-9.7s4.9-8.2,9.7-7.6c4.8,0.6,8.1,4.9,7.6,9.6
				C434.7,171.2,430.4,174.6,425.6,174.1z M427.4,159.1c-3.5-0.4-6.7,2.1-7.1,5.6s2.1,6.7,5.6,7.1c3.5,0.4,6.7-2.1,7.1-5.6
				C433.4,162.7,430.9,159.5,427.4,159.1z"/>
			<path class="st48" d="M436.7,159.3c-1.1-0.1-1.9-1.1-1.7-2.2c0.1-1.1,1.1-1.8,2.2-1.7s1.9,1.1,1.7,2.2
				C438.8,158.7,437.8,159.5,436.7,159.3z"/>
		</g>
		<g>
			<path class="st48" d="M436.9,218.9c2.9-5.4,5.9-10.8,8.8-16.3c-1.1-0.6-2.2-1.2-3.4-1.8c1-1.9,2-3.7,3-5.5
				c1.1,0.6,2.2,1.2,3.4,1.8c0.6-1,1.1-2,1.6-2.9c0.6-1,1-2,1.7-3c1.6-2.1,3.7-2.8,6.2-2.2c2.8,0.7,5.2,2.4,7.8,3.7
				c-1,1.9-2,3.8-3.1,5.7c-0.9-0.5-1.7-0.9-2.6-1.4c-0.4-0.2-0.9-0.5-1.3-0.7c-0.8-0.3-1.3-0.2-1.7,0.5c-0.7,1.2-1.4,2.5-2.1,3.8
				c1.7,0.9,3.3,1.8,5,2.7c-1.2,1.8-2.3,3.4-3.4,5.2c-1.5-0.8-3-1.6-4.6-2.5c-3,5.5-5.9,10.9-8.9,16.4
				C441.3,221.2,439.2,220.1,436.9,218.9z"/>
		</g>
		<g>
			<path class="st48" d="M404.2,244.9c3.5-1,6.2-3.1,8.1-6.2c-1.3,0.5-2.7,0.5-4.1,0.2c-1.4-0.4-2.5-1.1-3.4-2.2
				c0.5-0.1,1-0.2,1.4-0.4c0.5-0.2,0.9-0.5,1.3-0.8c-1.6,0.2-3.1,0-4.5-0.8s-2.4-1.9-3-3.4c1.1,0.1,2.1,0,3.1-0.3
				c-1.7-0.4-3.1-1.3-4.1-2.8c-1-1.4-1.3-3.1-1.1-4.8c5,2.6,10.1,3.1,15.5,1.4c-0.2-0.2-0.3-0.5-0.4-0.7c-0.7-1.4-1-2.8-0.7-4.3
				c0.4-2,1.4-3.5,3.1-4.6c2-1.2,4.1-1.3,6.3-0.4c0.1,0,0.1,0,0.2,0c1.2-0.8,2.3-1.8,3.2-3c0,0,0,0,0.1-0.1c0.1,0.8,0,1.6-0.3,2.4
				c-0.2,0.8-0.6,1.5-1.1,2.1c0.6-0.3,1.1-0.7,1.7-1.1c0.5-0.4,1-0.8,1.5-1.3c-0.1,0.3-0.1,0.6-0.2,0.9c-0.4,1.2-0.9,2.4-1.6,3.5
				c0,0.1,0,0.1,0,0.2c0.3,0.8,0.6,1.6,0.9,2.4c0.4,1.3,0.6,2.7,0.7,4c0.2,2.8-0.2,5.5-1.1,8.1c-1.3,3.5-3.4,6.4-6.4,8.6
				c-1.6,1.2-3.4,2.1-5.2,2.7C410.8,245.3,407.6,245.5,404.2,244.9L404.2,244.9z"/>
		</g>
		<path class="st48" d="M409.1,125.9l-8.2-14.9c-0.1-0.1-0.2-0.2-0.4-0.3c-1.2-0.3-2.3,0-3.3,0.9c-1.1,1-2.3,2-3.4,2.9l-1.9,1.6
			l-0.2-0.4c-0.3-0.5-0.6-0.9-0.9-1.4c-0.8-1.3-1.6-2.3-2.6-2.9c-0.8-0.5-1.6-0.9-2.3-1.1c-2-0.6-4.3,0.3-5.2,2.2
			c-0.3,0.6-0.2,0.8,0,1l3.1,3c0.5,0.5,0.8,1,0.9,1.7c0.3,1.6,0.7,3.1,1,4.6l0.5,2.1l-0.3,0.3c-0.3,0.2-0.7,0.6-1.1,0.9l0,0l0,0
			c-0.1,0.1-0.2,0.2-0.3,0.3l-0.1,0.1l0,0l-0.3,0.2c-1.1,0.9-2.1,1.8-3.2,2.7l-2.1,1.8c-0.3,0.3-0.5,0.7-0.6,1.2
			c0,0.4,0.1,0.9,0.4,1.2l9.4,10.9c0.3,0.4,0.7,0.6,1.2,0.6c0.4,0,0.7-0.1,1.1-0.3c0.1,0,0.1-0.1,0.2-0.1l5.6-4.9l0.1-0.1l0.5-0.4
			c0.3-0.3,0.4-0.7,0.3-1.1l-0.1-0.3l8.3-7.2c1-0.9,2-1.7,3-2.6c0.6-0.5,0.9-1.2,1-1.9L409.1,125.9z M393.5,139.8
			c-1.3,1.1-2.5,2.2-3.8,3.3l-0.3,0.2l-0.2-0.3c-2.2-2.5-4.3-4.9-6.5-7.4l-2.7-3.2l0.3-0.2c1.2-1.1,2.5-2.2,3.7-3.2l1.3-1.1l0.4-0.4
			l1.2,1.4l8.2,9.5L393.5,139.8z M407.1,126.8L407,127c-0.8,0.7-1.6,1.4-2.4,2.1l-6.2,5.4c-0.1,0.1-0.2,0.1-0.3,0.2l-2.3,2l-2.1-2.4
			c-1.9-2.2-3.7-4.3-5.6-6.4l-1.2-1.3l1-0.8c0.1-0.1,0.1-0.2,0.1-0.4c-0.5-2.3-1.1-4.7-1.6-7.1c-0.2-1.1-0.8-2.1-1.6-2.9
			c-0.5-0.5-1-1-1.5-1.5l-1-1l0.2-0.3c0.4-0.6,1.2-0.9,2-0.8c2.1,0.3,3.6,1.4,4.7,3.2c0.5,0.9,1.1,1.7,1.6,2.5l0.6,0.9
			c0.1,0.1,0.2,0.2,0.3,0.2c0.1,0,0.2,0,0.4-0.2c2.1-1.8,4.1-3.6,6.2-5.4c0.3-0.3,0.6-0.4,0.8-0.5l0.3-0.1l6.1,11.1
			c0,0.1,0,0.1,0.1,0.1l0.1,0.1l1.6,2.9L407.1,126.8z"/>
		<path class="st48" d="M59.3,179.8l5.3-16.2c0.1-0.2,0-0.3,0-0.4c-0.6-1.1-1.6-1.7-2.9-1.8c-1.5-0.2-3-0.3-4.5-0.5l-2.5-0.3
			l0.1-0.4c0.1-0.6,0.3-1.1,0.4-1.6c0.4-1.5,0.6-2.7,0.4-3.9c-0.2-1-0.4-1.8-0.8-2.5c-0.9-1.9-3.2-2.9-5.2-2.3
			c-0.6,0.2-0.7,0.4-0.7,0.7l-0.1,4.3c0,0.7-0.2,1.3-0.6,1.8c-0.9,1.3-1.8,2.6-2.7,3.9l-1.2,1.8h-0.4c-0.4,0-0.9-0.1-1.4-0.2l0,0
			l0,0c-0.2,0-0.3,0-0.5,0c-0.1,0-0.1,0-0.2,0l0,0h-0.3c-1.4-0.1-2.8-0.3-4.2-0.4l-2.7-0.3c-0.4,0-0.9,0.1-1.2,0.4
			c-0.3,0.3-0.6,0.7-0.6,1.1l-1.5,14.3c-0.1,0.5,0.1,0.9,0.3,1.3c0.2,0.3,0.6,0.5,0.9,0.6c0.1,0,0.1,0,0.2,0l7.4,0.8
			c0.1,0,0.1,0,0.2,0l0.7,0.1c0.4,0,0.8-0.2,1-0.6l0.1-0.2l10.9,1.2c1.3,0.1,2.6,0.3,3.9,0.4c0.8,0.1,1.5-0.1,2.1-0.6L59.3,179.8z
			 M38.5,177.9c-1.6-0.2-3.3-0.4-5-0.5h-0.4V177c0.3-3.3,0.7-6.5,1-9.8l0.4-4.1h0.4c1.6,0.1,3.3,0.3,4.9,0.5l1.6,0.2h0.5l-0.2,1.8
			l-1.3,12.5L38.5,177.9z M57.2,178.9H57c-1-0.1-2.1-0.3-3.2-0.4l-8.2-0.9c-0.1,0-0.2,0-0.4-0.1l-3-0.3l0.3-3.2
			c0.3-2.9,0.6-5.6,0.9-8.4l0.2-1.8L45,164c0.1,0,0.2-0.1,0.3-0.2c1.3-2,2.7-4,4.1-6c0.7-0.9,1-2,1-3.2c0-0.7,0-1.4,0-2.1v-1.4
			l0.3-0.1c0.7-0.1,1.4,0.2,1.9,0.9c1.2,1.7,1.5,3.5,0.9,5.6c-0.3,1-0.5,1.9-0.8,2.9l-0.3,1.1c0,0.1,0,0.2,0.1,0.3s0.1,0.2,0.4,0.2
			c2.7,0.3,5.4,0.6,8.2,0.9c0.4,0,0.7,0.1,1,0.2l0.3,0.1l-4,12c0,0.1-0.1,0.1,0,0.1v0.2l-1,3.1L57.2,178.9z"/>
		<g>
			<path class="st48" d="M420.5,95.7c-3.2,1.3-6.1,2.5-9.1,3.6c-1.2,0.4-2.4,0.8-3.6,1.1c-2.3,0.5-4.3-0.4-5.5-2.4
				c-1-1.6-1.8-3.3-2.6-5.1c-1-2.2-1.8-4.4-2.6-6.6c-0.3-1-0.7-2-0.8-3.1c-0.3-2.1,0.6-3.6,2.3-4.8c1.4-1,3-1.6,4.5-2.4
				c2.3-1.1,4.7-2.1,7-3c3.3-1.4,6.7-2.7,10.1-3.9c1.1-0.4,2.1-0.7,3.2-1c2.3-0.5,4.1,0.2,5.4,2.2c1.3,1.9,2.2,4,3.2,6.1
				c1,2.2,1.8,4.4,2.4,6.7c0.2,0.7,0.4,1.5,0.5,2.2c0.2,2-0.6,3.6-2.3,4.7c-1.4,0.9-2.9,1.6-4.5,2.3C425.6,93.6,423,94.7,420.5,95.7
				z M414.6,90.7c2.1-2.9,4.1-5.7,6.2-8.6c-3.5-0.6-7-1.1-10.4-1.7C411.8,83.8,413.2,87.2,414.6,90.7z"/>
		</g>
		<g>
			<path class="st48" d="M358.6,60c0.2-0.4,0.5-0.7,0.7-1.1c1.6-2.4,3.8-3.7,6.6-3.9c3.7-0.2,7.2,2,8.5,5.5c1,2.5,0.7,5.1-0.8,7.4
				c-2.2,3.6-4.5,7.1-6.7,10.6c-1.1,1.8-2.3,3.5-3.4,5.3c-0.1,0.1-0.1,0.2-0.2,0.3c-0.2,0-0.3-0.1-0.4-0.2c-5-3.6-9.9-7.2-14.9-10.8
				c-2.1-1.5-3.4-3.6-3.8-6.2c-0.4-3.4,1.3-7.4,5.3-8.8c2.3-0.8,4.6-0.8,6.8,0.2c0.4,0.2,0.8,0.4,1.2,0.7
				C357.9,59.5,358.2,59.7,358.6,60z"/>
		</g>
		<g>
			<path class="st48" d="M67.6,55.9c0.2-0.4,0.3-0.8,0.5-1.2c1.2-2.6,3.2-4.3,5.9-4.8c3.6-0.8,7.4,0.9,9.2,4
				c1.4,2.3,1.5,4.9,0.4,7.4c-1.6,3.9-3.3,7.7-4.9,11.5c-0.8,1.9-1.7,3.9-2.5,5.8c0,0.1-0.1,0.2-0.1,0.3c-0.2,0-0.3-0.1-0.4-0.1
				c-5.5-2.7-10.9-5.5-16.4-8.2c-2.3-1.2-4-2.9-4.7-5.5c-1-3.3,0.1-7.5,3.8-9.5c2.1-1.2,4.4-1.6,6.7-0.9c0.4,0.1,0.8,0.3,1.2,0.5
				C66.8,55.4,67.2,55.6,67.6,55.9z"/>
		</g>
		<g>
			<path class="st48" d="M47.7,190.9L28.8,202c-3.3,1.9-4.4,6.2-2.4,9.5l5.2,8.9c1.9,3.3,6.2,4.4,9.5,2.4l10.4-6.1l7.2,1.1
				c1.8,0.3,3.2-1.7,2.2-3.3l-1.5-2.5l0.6-0.4c3.3-1.9,4.4-6.2,2.4-9.5l-5.2-8.9C55.2,190,51,188.9,47.7,190.9z"/>
			<g>
				<path class="st48" d="M38.5,208.3c0.9-0.2,1.9,0.3,2.1,1.3c0.2,0.9-0.3,1.9-1.3,2.1c-0.9,0.2-1.9-0.3-2.1-1.3
					C37,209.5,37.6,208.6,38.5,208.3z"/>
				<path class="st48" d="M43.9,205.1c0.9-0.2,1.9,0.3,2.1,1.3c0.2,0.9-0.3,1.9-1.3,2.1c-0.9,0.2-1.9-0.3-2.1-1.3
					C42.4,206.3,43,205.4,43.9,205.1z"/>
				<path class="st48" d="M49.3,201.9c0.9-0.2,1.9,0.3,2.1,1.3s-0.3,1.9-1.3,2.1c-0.9,0.2-1.9-0.3-2.1-1.3S48.3,202.2,49.3,201.9z"
					/>
			</g>
		</g>
	</g>
</g>
</svg>
